<svg clip-rule="evenodd" fill-rule="evenodd" stroke-linejoin="round" stroke-miterlimit="2" viewBox="0 0 849 153" xmlns="http://www.w3.org/2000/svg"><g fill="#9dc88d"><g fill-rule="nonzero"><path d="m.069-.476h.11v.044c.021-.022.039-.037.054-.045.016-.008.036-.012.06-.012.054 0 .097.024.128.071.034-.047.081-.071.14-.071.107 0 .161.065.161.195v.294h-.111v-.264c0-.046-.005-.078-.016-.097-.012-.019-.03-.029-.056-.029-.031 0-.053.012-.067.035-.013.022-.02.059-.02.109v.246h-.111v-.263c0-.084-.024-.127-.073-.127-.031 0-.053.012-.068.035-.014.023-.021.06-.021.109v.246h-.11z" transform="matrix(95.68649864 0 0 95.68640713 181.478408 105.256901)"/><path d="m.219-.088-.214-.388h.128l.145.274.136-.274h.124l-.379.735h-.125z" transform="matrix(95.68649864 0 0 95.68640713 255.62597 105.256901)"/><path d="m.183-.373v.373h-.11v-.373h-.039v-.103h.039v-.183c0-.06.01-.102.031-.127.029-.035.07-.052.125-.052.02 0 .044.006.074.017v.113l-.011-.006c-.024-.012-.044-.018-.059-.018-.02 0-.033.007-.04.021-.006.013-.01.04-.01.079v.156h.12v.103z" transform="matrix(95.68649864 0 0 95.68640713 307.627641 105.256901)"/><path d="m.42-.476h.11v.476h-.11v-.05c-.045.043-.094.064-.146.064-.066 0-.12-.024-.163-.072s-.064-.109-.064-.181.021-.131.064-.178c.042-.048.096-.072.16-.072.055 0 .105.023.149.069zm-.261.237c0 .045.012.082.037.111s.056.044.095.044c.04 0 .073-.014.098-.042.025-.029.038-.066.038-.111 0-.044-.013-.081-.038-.11-.025-.028-.057-.043-.097-.043-.038 0-.07.015-.095.043-.025.029-.038.065-.038.108z" transform="matrix(95.68649864 0 0 95.68640713 337.482703 105.256901)"/><path d="m.128-.476.123.268.123-.268h.124l-.248.509-.245-.509z" transform="matrix(95.68649864 0 0 95.68640713 395.698456 105.256901)"/><path d="m.047-.241c0-.069.024-.127.074-.176.049-.048.109-.072.179-.072.071 0 .131.024.181.073.049.048.073.108.073.179s-.024.131-.074.179c-.049.048-.11.072-.182.072-.071 0-.131-.025-.179-.074-.048-.048-.072-.108-.072-.181zm.112.002c0 .047.013.085.038.113.026.028.061.042.103.042.043 0 .078-.014.103-.042.026-.028.039-.065.039-.111s-.013-.083-.039-.111-.06-.042-.103-.042c-.042 0-.076.014-.102.042s-.039.064-.039.109z" transform="matrix(95.68649864 0 0 95.68640713 441.952767 105.256901)"/><path d="m.069-.476h.11v.043c.02-.021.038-.036.054-.044s.035-.012.057-.012c.029 0 .059.01.09.029l-.05.1c-.021-.015-.041-.022-.061-.022-.06 0-.09.045-.09.135v.247h-.11z" transform="matrix(95.68649864 0 0 95.68640713 499.46736 105.256901)"/><path d="m.179-.476v.476h-.11v-.476zm-.126-.197c0-.02.007-.036.021-.05s.03-.021.05-.021.037.007.051.021.021.03.021.05-.007.037-.021.051-.031.021-.05.021c-.02 0-.037-.007-.051-.021s-.021-.031-.021-.051z" transform="matrix(95.68649864 0 0 95.68640713 536.705104 105.256901)"/><path d="m.183-.373v.373h-.11v-.373h-.047v-.103h.047v-.174h.11v.174h.085v.103z" transform="matrix(95.68649864 0 0 95.68640713 560.533061 105.256901)"/><path d="m.502-.212h-.34c.003.039.015.07.038.093.022.023.051.035.086.035.027 0 .05-.007.068-.02s.038-.037.06-.072l.093.051c-.014.025-.03.046-.046.063-.016.018-.033.032-.051.043s-.038.02-.059.025-.044.008-.069.008c-.071 0-.128-.023-.171-.069s-.064-.106-.064-.182.021-.136.062-.183c.042-.046.098-.069.167-.069.07 0 .126.023.166.067.041.044.061.106.061.184zm-.112-.09c-.016-.058-.053-.088-.111-.088-.014 0-.026.002-.038.006-.012.005-.022.01-.032.018-.009.008-.018.017-.024.028-.007.01-.012.023-.016.036z" transform="matrix(95.68649864 0 0 95.68640713 587.538175 105.256901)"/><path d="m.42-.825h.11v.825h-.11v-.05c-.043.043-.092.064-.147.064-.065 0-.119-.024-.162-.072s-.064-.109-.064-.181c0-.071.021-.13.064-.178.042-.048.095-.072.16-.072.055 0 .105.023.149.069zm-.261.586c0 .045.012.082.037.111s.056.044.095.044c.04 0 .073-.014.098-.042.025-.029.038-.066.038-.111 0-.044-.013-.081-.038-.11-.025-.028-.057-.043-.097-.043-.038 0-.07.015-.095.043-.025.029-.038.065-.038.108z" transform="matrix(95.68649864 0 0 95.68640713 640.474008 105.256901)"/><path d="m.047-.241c0-.069.024-.127.074-.176.049-.048.109-.072.179-.072.071 0 .131.024.181.073.049.048.073.108.073.179s-.024.131-.074.179c-.049.048-.11.072-.182.072-.071 0-.131-.025-.179-.074-.048-.048-.072-.108-.072-.181zm.112.002c0 .047.013.085.038.113.026.028.061.042.103.042.043 0 .078-.014.103-.042.026-.028.039-.065.039-.111s-.013-.083-.039-.111-.06-.042-.103-.042c-.042 0-.076.014-.102.042s-.039.064-.039.109z" transform="matrix(95.68649864 0 0 95.68640713 697.849087 105.256901)"/><path d="m.529-.011c0 .022 0 .042-.002.059-.001.017-.003.032-.006.045-.008.036-.023.067-.046.093-.043.049-.102.074-.177.074-.064 0-.116-.017-.157-.052-.042-.035-.067-.083-.073-.145h.11c.004.023.011.041.021.054.023.029.056.044.1.044.08 0 .12-.049.12-.148v-.066c-.043.044-.093.067-.15.067-.065 0-.118-.024-.16-.071-.041-.047-.062-.107-.062-.178 0-.069.019-.128.058-.177.042-.051.097-.077.165-.077.06 0 .11.023.149.067v-.054h.11zm-.105-.226c0-.046-.013-.083-.037-.111-.025-.028-.057-.042-.096-.042-.042 0-.075.015-.099.046-.022.028-.033.064-.033.108 0 .043.011.078.033.106.024.03.057.046.099.046s.075-.016.099-.046c.023-.028.034-.064.034-.107z" transform="matrix(95.68649864 0 0 95.68640713 755.363679 105.256901)"/><path d="m.346-.395-.091.049c-.014-.029-.032-.044-.053-.044-.01 0-.019.003-.026.01s-.011.015-.011.026c0 .018.021.036.064.054.058.025.097.048.117.069s.03.05.03.085c0 .046-.016.085-.05.116-.033.029-.073.044-.119.044-.08 0-.137-.039-.17-.117l.094-.043c.013.022.023.037.03.043.013.012.029.019.047.019.038 0 .056-.017.056-.051 0-.02-.014-.038-.043-.055-.011-.005-.022-.011-.033-.016s-.022-.011-.034-.016c-.032-.016-.054-.031-.067-.047-.017-.02-.025-.045-.025-.077 0-.041.014-.075.042-.102.029-.027.065-.041.106-.041.061 0 .106.032.136.094z" transform="matrix(95.68649864 0 0 95.68640713 812.644551 105.256901)"/></g><path d="m795.265 356.019c92.802 155.401 41.98 356.912-113.422 449.715-155.401 92.803-356.912 41.98-449.714-113.421-92.803-155.402-41.981-356.913 113.421-449.715 155.401-92.803 356.912-41.981 449.715 113.421zm-228.516 310.111c1.724 30.212 1.794 45.782-5.098 58.136-13.611 24.399-38.332 26.12-62.745 12.501-10.761-6.003-17.7-9.892-30.16-28.818 0 0-5.569-16.755-32.785-30.536-26.275-16.051-43.534-11.867-43.534-11.867-22.646-.667-29.291-4.5-40.038-10.496-24.412-13.619-35.956-35.552-22.337-59.964 6.892-12.355 20.19-20.449 46.804-34.871 0 0 51.573-29.523 86.439-37.497 25.182-5.742 49.592 7.947 49.592 7.947l7.539 4.206.004-.007s25.544 14.168 32.831 38.041c10.39 34.216 13.484 93.232 13.488 93.225zm127.859-120.795c-13.973-19.182-49.507-17.08-79.385 4.684s-42.765 54.95-28.792 74.133c13.977 19.176 49.511 17.074 79.385-4.683s42.766-54.951 28.792-74.134zm-113.572-15.636c25.523 14.238 64.204-6.459 86.388-46.227 22.185-39.768 19.477-83.554-6.046-97.792s-64.197 6.463-86.382 46.231c-22.184 39.767-19.483 83.55 6.04 97.788zm-190.629-14.9c23.656 1.809 45.124-26.591 47.944-63.44 2.82-36.85-14.065-68.194-37.717-70.01s-45.118 26.594-47.945 63.44c-2.82 36.85 14.069 68.187 37.718 70.01zm83.19-45.035c25.524 14.238 64.197-6.463 86.382-46.231s19.483-83.55-6.04-97.788c-25.523-14.239-64.197 6.463-86.381 46.23-22.185 39.768-19.484 83.551 6.039 97.789z" transform="matrix(.23316796 0 0 .23316779 -43.309429 -45.749695)"/></g></svg>