<?xml version="1.0" encoding="UTF-8" standalone="no"?>
<!DOCTYPE svg PUBLIC "-//W3C//DTD SVG 1.1//EN" "http://www.w3.org/Graphics/SVG/1.1/DTD/svg11.dtd">
<svg width="100%" height="100%" viewBox="0 0 153 153" version="1.1" xmlns="http://www.w3.org/2000/svg" xmlns:xlink="http://www.w3.org/1999/xlink" xml:space="preserve" xmlns:serif="http://www.serif.com/" style="fill-rule:evenodd;clip-rule:evenodd;stroke-linejoin:round;stroke-miterlimit:2;">
    <g transform="matrix(1,0,0,1,-6.67295e-05,-0.000802173)">
        <g transform="matrix(1,0,0,1,-51.2242,-23.2637)">
            <g transform="matrix(0.233168,0,0,0.233168,7.91477,-22.486)">
                <g>
                    <path d="M795.265,356.019C888.067,511.42 837.245,712.931 681.843,805.734C526.442,898.537 324.931,847.714 232.129,692.313C139.326,536.911 190.148,335.4 345.55,242.598C500.951,149.795 702.462,200.617 795.265,356.019ZM566.749,666.13C568.473,696.342 568.543,711.912 561.651,724.266C548.04,748.665 523.319,750.386 498.906,736.767C488.145,730.764 481.206,726.875 468.746,707.949C468.746,707.949 463.177,691.194 435.961,677.413C409.686,661.362 392.427,665.546 392.427,665.546C369.781,664.879 363.136,661.046 352.389,655.05C327.977,641.431 316.433,619.498 330.052,595.086C336.944,582.731 350.242,574.637 376.856,560.215C376.856,560.215 428.429,530.692 463.295,522.718C488.477,516.976 512.887,530.665 512.887,530.665L520.426,534.871L520.43,534.864C520.43,534.864 545.974,549.032 553.261,572.905C563.651,607.121 566.745,666.137 566.749,666.13ZM694.608,545.335C680.635,526.153 645.101,528.255 615.223,550.019C585.345,571.783 572.458,604.969 586.431,624.152C600.408,643.328 635.942,641.226 665.816,619.469C695.69,597.712 708.582,564.518 694.608,545.335ZM581.036,529.699C606.559,543.937 645.24,523.24 667.424,483.472C689.609,443.704 686.901,399.918 661.378,385.68C635.855,371.442 597.181,392.143 574.996,431.911C552.812,471.678 555.513,515.461 581.036,529.699ZM390.407,514.799C414.063,516.608 435.531,488.208 438.351,451.359C441.171,414.509 424.286,383.165 400.634,381.349C376.982,379.533 355.516,407.943 352.689,444.789C349.869,481.639 366.758,512.976 390.407,514.799ZM473.597,469.764C499.121,484.002 537.794,463.301 559.979,423.533C582.164,383.765 579.462,339.983 553.939,325.745C528.416,311.506 489.742,332.208 467.558,371.975C445.373,411.743 448.074,455.526 473.597,469.764Z" style="fill:rgb(157,200,141);"/>
                </g>
            </g>
        </g>
    </g>
</svg>
