<svg enable-background="new 0 0 1000 1000" viewBox="0 0 1000 1000" xmlns="http://www.w3.org/2000/svg"><path d="m500 990c-270.2 0-490-219.8-490-490s219.8-490 490-490 490 219.8 490 490-219.8 490-490 490zm0-933.3c-244.4 0-443.3 198.8-443.3 443.3 0 244.4 198.8 443.3 443.3 443.3s443.3-198.9 443.3-443.3-198.9-443.3-443.3-443.3z"/><path d="m738.4 526.5h-212v212c0 14.7-11.9 26.5-26.5 26.5-14.7 0-26.5-11.9-26.5-26.5v-212h-212c-14.6 0-26.5-11.9-26.5-26.5s11.9-26.5 26.5-26.5h212v-211.9c0-14.7 11.9-26.5 26.5-26.6 14.7 0 26.5 11.9 26.5 26.6v212h212c14.6 0 26.5 11.9 26.5 26.5 0 14.5-11.8 26.4-26.5 26.4z"/></svg>