<?xml version="1.0" standalone="no"?>
<!DOCTYPE svg PUBLIC "-//W3C//DTD SVG 20010904//EN"
 "http://www.w3.org/TR/2001/REC-SVG-20010904/DTD/svg10.dtd">
<svg version="1.0" xmlns="http://www.w3.org/2000/svg"
 width="748.000000pt" height="748.000000pt" viewBox="0 0 748.000000 748.000000"
 preserveAspectRatio="xMidYMid meet">
<metadata>
Created by potrace 1.11, written by Peter Selinger 2001-2013
</metadata>
<g transform="translate(0.000000,748.000000) scale(0.100000,-0.100000)"
fill="#000000" stroke="none">
<path d="M3498 7396 c-1 -2 -46 -6 -98 -10 -52 -4 -104 -9 -115 -11 -11 -2
-39 -7 -63 -9 -156 -19 -406 -75 -567 -126 -55 -18 -104 -33 -110 -35 -5 -1
-17 -5 -25 -8 -8 -4 -55 -22 -105 -41 -175 -66 -428 -190 -565 -276 -126 -78
-185 -119 -295 -201 -71 -54 -146 -111 -165 -128 -19 -18 -51 -45 -70 -62
-162 -144 -379 -378 -475 -513 -11 -16 -25 -33 -31 -40 -5 -6 -35 -48 -66 -93
-31 -45 -60 -78 -64 -75 -4 4 -4 2 -1 -4 4 -6 -14 -41 -38 -78 -25 -36 -43
-66 -40 -66 3 0 -10 -24 -29 -52 -18 -29 -36 -63 -40 -75 -4 -13 -12 -23 -17
-23 -5 0 -9 -5 -9 -12 0 -13 -79 -180 -89 -188 -3 -3 -6 -11 -7 -17 -2 -30 -5
-34 -16 -27 -6 4 -8 3 -4 -4 3 -6 -4 -35 -17 -64 -12 -29 -29 -72 -37 -95 -7
-24 -17 -43 -22 -43 -5 0 -7 -4 -4 -9 4 -5 1 -22 -6 -38 -6 -15 -12 -30 -13
-33 -1 -3 -6 -20 -10 -37 -4 -19 -12 -30 -18 -26 -5 3 -7 1 -3 -5 9 -15 -16
-102 -27 -95 -6 3 -7 1 -3 -5 3 -6 -3 -46 -14 -89 -11 -43 -23 -89 -25 -103
-3 -14 -7 -36 -11 -50 -3 -14 -8 -42 -11 -62 -3 -21 -8 -38 -12 -38 -3 0 -7
-19 -7 -43 -1 -23 -5 -58 -8 -77 -4 -19 -8 -43 -9 -53 -1 -10 -9 -23 -17 -28
-12 -9 -12 -10 4 -5 14 5 17 2 12 -10 -3 -8 -6 -25 -6 -35 0 -11 -5 -17 -10
-14 -6 3 -10 1 -10 -4 0 -6 4 -11 9 -11 6 0 8 -10 5 -22 -3 -13 -7 -75 -10
-138 -4 -63 -11 -121 -18 -129 -6 -9 -7 -12 0 -9 7 5 11 -34 13 -120 3 -190 8
-268 15 -280 3 -6 2 -13 -4 -17 -6 -4 -7 -12 -3 -18 9 -14 12 -28 17 -89 3
-26 8 -53 12 -59 5 -8 3 -9 -6 -4 -10 6 -11 4 -4 -6 9 -15 12 -27 19 -69 4
-29 10 -55 26 -122 6 -26 8 -52 4 -58 -3 -5 0 -10 7 -10 9 0 9 -3 -2 -10 -12
-8 -12 -10 -1 -10 8 0 11 -7 8 -20 -3 -13 -1 -18 6 -13 6 4 8 -2 5 -15 -3 -12
-2 -22 4 -24 5 -2 10 -20 11 -40 1 -20 6 -33 11 -30 5 3 7 -5 4 -16 -4 -12 -2
-22 2 -22 4 0 14 -24 21 -52 6 -29 18 -67 25 -84 10 -24 10 -34 1 -43 -9 -10
-9 -12 3 -9 8 2 15 -1 15 -7 1 -5 7 -23 14 -40 7 -16 22 -55 32 -85 11 -30 24
-62 29 -71 5 -10 4 -21 -3 -28 -9 -10 -9 -12 3 -9 9 2 14 -4 14 -14 -1 -10 2
-16 6 -13 10 6 22 -23 15 -35 -3 -4 1 -10 9 -13 7 -3 17 -18 21 -34 3 -15 12
-31 18 -35 8 -5 6 -12 -8 -23 -14 -10 -15 -13 -4 -9 24 8 68 -54 48 -67 -13
-8 -6 -13 13 -10 4 0 10 -10 14 -24 3 -14 9 -25 13 -25 4 0 13 -12 19 -26 10
-20 10 -24 0 -18 -7 4 -4 -2 7 -13 11 -10 29 -37 40 -59 11 -21 22 -41 25 -44
3 -3 21 -30 40 -60 19 -30 38 -58 43 -61 5 -4 3 -9 -4 -12 -11 -4 -11 -6 1 -6
8 -1 25 -17 38 -37 22 -34 23 -36 5 -50 -16 -14 -16 -14 6 -4 29 15 45 -4 29
-34 -9 -17 -8 -19 3 -9 10 10 16 9 31 -4 10 -9 18 -22 18 -30 0 -7 4 -13 9
-13 5 0 17 -12 26 -27 16 -24 16 -26 1 -20 -10 4 -15 3 -11 -3 3 -6 12 -10 20
-10 7 0 25 -15 39 -32 14 -18 33 -40 41 -49 8 -9 15 -21 15 -28 0 -7 4 -9 10
-6 5 3 10 2 10 -4 0 -5 13 -22 30 -38 19 -18 28 -34 24 -45 -3 -10 0 -18 6
-18 6 0 8 5 5 10 -3 6 -2 10 4 10 5 0 13 -9 16 -20 4 -11 10 -18 14 -15 4 2
14 -7 21 -20 7 -13 17 -22 23 -18 5 3 4 -4 -2 -15 -15 -29 -14 -40 2 -17 13
17 14 17 29 -3 8 -12 18 -19 23 -14 5 4 5 1 1 -5 -4 -7 -3 -13 3 -13 9 0 58
-43 168 -146 18 -18 33 -30 33 -28 0 1 10 -7 23 -20 13 -13 30 -26 38 -29 12
-5 12 -7 -1 -16 -8 -5 -17 -8 -21 -5 -4 2 -10 0 -14 -5 -6 -10 16 -8 48 4 22
9 22 -4 0 -22 -16 -13 -16 -13 4 -4 28 14 43 14 43 0 0 -5 -4 -8 -9 -4 -5 3
-12 1 -16 -4 -3 -6 5 -8 20 -5 14 2 25 0 25 -6 0 -6 4 -9 9 -5 6 3 13 0 18 -7
4 -7 20 -19 35 -27 15 -8 25 -18 22 -23 -5 -7 3 -10 23 -7 3 0 10 -6 15 -15 5
-9 14 -16 21 -16 24 -1 57 -38 50 -56 -4 -11 -3 -15 5 -10 6 3 13 2 16 -3 3
-5 14 -7 25 -4 19 5 131 -60 131 -77 0 -5 9 -7 20 -5 11 2 20 0 20 -4 0 -4 22
-18 50 -31 27 -13 50 -27 50 -32 0 -5 -12 -1 -27 8 l-28 16 22 -20 c12 -11 19
-23 15 -28 -3 -5 2 -1 13 8 18 17 20 17 32 -10 12 -26 13 -26 7 -2 -4 19 -3
22 5 10 6 -8 11 -11 11 -6 0 5 6 3 13 -3 8 -6 16 -8 19 -5 3 2 8 -2 11 -10 4
-11 0 -13 -19 -10 -23 4 -24 4 -7 -16 21 -25 24 -25 16 -2 -3 9 -3 14 2 10 4
-4 14 -3 22 3 10 9 13 8 13 0 0 -7 4 -10 8 -7 10 6 72 -24 72 -35 0 -5 -17 1
-37 13 -21 12 -35 18 -31 14 4 -5 3 -19 -3 -33 -6 -16 -6 -22 1 -18 6 3 10 13
10 21 0 8 5 14 11 14 5 0 7 -5 3 -12 -4 -6 -3 -8 2 -5 6 3 16 2 24 -3 8 -5 22
-4 32 1 13 7 24 6 38 -4 22 -16 17 -29 -8 -19 -14 5 -15 4 -2 -10 8 -9 17 -12
18 -7 2 5 8 7 13 3 5 -3 9 2 9 11 0 9 5 13 10 10 6 -4 7 -11 4 -17 -5 -7 0 -9
14 -6 12 3 26 0 32 -7 6 -8 17 -12 24 -9 7 3 21 -6 30 -20 9 -15 22 -26 29
-26 7 1 5 6 -6 14 -9 7 -17 17 -17 21 0 4 6 2 13 -4 8 -6 17 -7 21 -3 4 4 6 1
4 -7 -2 -7 3 -16 11 -19 9 -3 11 0 6 8 -6 9 -4 11 6 4 8 -4 23 -10 34 -11 11
-2 22 -8 23 -13 2 -6 8 -8 13 -4 5 3 9 0 9 -5 0 -15 -12 -14 -36 3 -18 13 -20
12 -21 -7 0 -12 1 -16 4 -9 4 10 8 9 17 -4 12 -16 14 -16 34 4 20 20 20 20 25
1 3 -10 2 -17 -2 -14 -5 2 -16 -2 -26 -9 -14 -10 -15 -15 -5 -21 9 -5 11 -4 6
3 -7 12 5 16 32 13 7 -1 12 5 10 13 -2 8 0 15 5 15 26 3 29 0 17 -14 -15 -18
1 -20 19 -3 11 10 13 10 7 1 -4 -7 -2 -13 3 -13 6 0 11 6 11 13 0 8 3 9 8 1 4
-6 15 -10 25 -8 9 1 15 -2 12 -6 -3 -5 -14 -7 -25 -5 -11 2 -23 -1 -26 -7 -4
-6 -2 -8 4 -4 6 3 13 2 17 -4 4 -6 11 -8 16 -4 5 3 17 0 25 -7 12 -9 17 -10
27 0 9 10 8 11 -7 5 -15 -6 -17 -4 -11 6 6 9 4 11 -6 5 -8 -5 -10 -4 -6 0 11
13 37 15 37 4 0 -6 4 -8 9 -4 5 3 12 1 16 -4 3 -6 12 -8 19 -5 8 3 17 1 20 -5
7 -11 -36 -11 -44 1 -3 4 -11 -2 -18 -12 -7 -12 -8 -20 -2 -20 5 0 10 4 10 9
0 4 13 7 30 5 16 -2 32 1 35 6 3 5 15 6 28 1 12 -4 28 -6 35 -4 8 3 12 -1 10
-10 -2 -9 1 -16 5 -16 4 1 19 -6 32 -15 18 -12 24 -12 28 -3 3 7 -4 14 -14 15
-42 4 -48 6 -43 14 3 4 13 4 22 -1 9 -4 23 -6 30 -4 14 5 43 -27 36 -39 -9
-15 4 -8 17 9 8 10 9 14 2 10 -6 -4 -14 -3 -17 2 -4 5 -2 12 3 15 5 4 12 2 16
-4 4 -6 11 -7 17 -4 7 5 8 2 3 -6 -6 -10 -4 -12 9 -7 14 6 16 3 11 -16 -5 -16
-4 -18 4 -8 7 11 13 12 23 4 12 -10 27 -13 71 -14 9 0 15 -4 12 -9 -6 -10 36
-7 54 4 6 4 14 1 17 -8 3 -8 12 -12 20 -9 20 8 17 23 -3 17 -15 -5 -15 -4 -3
4 10 8 2 10 -33 7 -26 -2 -49 0 -53 6 -4 8 -9 7 -15 -2 -6 -10 -9 -10 -9 -2 0
6 -9 10 -19 8 -11 -2 -27 3 -38 10 -17 13 -17 14 0 15 9 0 17 -4 17 -8 0 -4
15 -9 33 -10 17 -1 52 -3 77 -4 25 -2 50 -6 55 -9 6 -4 18 -5 28 -4 9 2 15 -1
11 -6 -8 -13 10 -11 26 3 12 11 12 10 1 -5 -15 -20 -2 -23 18 -4 11 10 12 8 6
-10 -4 -15 -2 -23 5 -23 6 0 8 5 5 10 -3 6 -1 10 5 10 6 0 8 4 5 10 -3 5 1 10
11 10 14 0 14 -2 3 -16 -10 -13 -10 -17 1 -24 8 -5 21 -5 29 -1 9 5 22 6 29 4
6 -3 12 0 12 6 0 10 -31 8 -49 -4 -5 -3 -12 -1 -15 4 -12 18 59 35 81 19 6 -5
14 -4 18 2 4 7 11 7 18 2 7 -5 47 -8 89 -8 42 1 74 -2 71 -7 -3 -5 5 -6 18 -1
13 4 58 8 99 9 41 0 81 5 89 9 10 6 12 5 7 -2 -4 -7 0 -12 10 -12 10 0 14 -3
10 -7 -9 -9 -37 -13 -32 -4 3 4 -6 7 -19 7 -13 0 -21 -4 -18 -10 4 -5 1 -6 -7
-1 -9 5 -11 4 -6 -3 5 -8 2 -10 -8 -6 -9 3 -16 2 -16 -4 0 -13 24 -10 43 6 9
8 18 9 21 4 3 -6 -1 -12 -9 -16 -8 -3 -15 -11 -15 -18 0 -10 3 -9 9 1 5 8 20
15 34 15 27 2 57 22 57 40 0 6 -5 4 -10 -4 -8 -13 -10 -12 -10 3 0 21 13 22
29 3 8 -10 9 -16 1 -21 -6 -3 -8 -11 -4 -16 3 -5 10 -7 15 -3 5 3 6 10 3 16
-5 8 -1 9 10 5 10 -4 20 -7 22 -7 3 0 3 -4 0 -8 -3 -5 1 -9 8 -9 11 0 12 4 3
18 -6 10 -13 17 -16 17 -18 -1 -31 3 -31 10 0 5 12 8 28 7 15 -1 31 1 37 4 20
11 87 7 92 -6 3 -7 9 -10 15 -7 5 3 4 13 -4 22 -12 15 -11 16 5 3 14 -11 17
-11 17 0 0 12 2 12 9 0 7 -11 9 -11 13 0 3 10 6 9 10 -3 5 -11 2 -15 -9 -14
-9 2 -25 -6 -35 -16 -24 -24 -23 -36 1 -14 11 10 25 18 33 20 19 3 46 20 50
31 2 6 15 10 31 9 15 0 27 3 27 8 0 4 5 8 11 8 5 0 7 -4 4 -10 -4 -6 6 -10 24
-10 16 0 33 -5 36 -10 7 -12 25 -4 25 12 0 5 -7 7 -16 4 -10 -4 -13 -2 -8 6 5
8 2 9 -10 5 -11 -4 -15 -3 -11 4 4 6 14 8 22 5 8 -3 20 -3 26 1 21 13 35 12
41 -3 5 -12 2 -12 -15 -3 -17 9 -20 8 -14 -2 6 -8 4 -10 -6 -4 -11 7 -12 6 -2
-6 10 -12 10 -18 0 -29 -10 -12 -9 -12 5 -1 10 7 15 18 12 23 -3 5 2 8 12 6
10 -2 19 3 20 10 1 6 2 17 3 23 0 6 8 9 16 6 8 -4 17 -2 20 3 3 5 14 8 25 7
23 -1 16 -12 -8 -12 -9 0 -16 -6 -14 -12 3 -17 -15 -17 -20 -1 -3 9 -6 9 -12
0 -4 -7 -2 -12 5 -12 8 0 7 -5 -2 -17 -12 -14 -11 -14 13 1 15 10 25 22 22 27
-3 5 -1 9 4 9 6 0 12 -6 15 -14 3 -7 14 -16 25 -18 14 -4 19 -2 15 8 -2 7 -11
10 -19 7 -8 -3 -14 -1 -14 5 0 5 7 13 16 16 8 3 13 10 10 14 -3 5 7 8 22 7 15
-1 29 2 32 6 3 4 18 10 34 13 15 3 35 11 44 18 12 10 14 10 8 1 -10 -18 9 -16
24 2 7 9 15 14 17 11 2 -2 -7 -15 -21 -29 -14 -15 -26 -32 -25 -39 0 -7 5 -3
11 10 6 12 15 22 20 22 5 0 7 -4 4 -8 -3 -5 1 -9 9 -9 11 0 12 4 4 14 -9 9 -8
13 0 13 6 0 14 -6 17 -13 3 -8 12 -14 21 -14 13 0 12 4 -5 15 -34 22 -26 35
11 16 l32 -16 -29 25 c-18 14 -24 24 -15 25 15 1 53 9 57 12 1 2 7 4 12 5 6 1
11 3 13 5 9 8 38 6 44 -2 3 -6 2 -9 -3 -6 -5 4 -10 -5 -11 -19 0 -15 2 -21 5
-16 4 6 17 13 30 17 12 4 22 14 22 22 0 8 3 14 8 14 13 -1 42 -27 37 -33 -3
-4 -2 -4 2 -1 5 3 9 10 9 15 3 22 5 23 15 9 8 -11 9 -9 4 10 -6 20 -5 23 6 13
7 -7 18 -13 24 -13 12 1 -24 23 -41 26 -6 1 -11 -5 -10 -13 0 -9 -6 -18 -14
-21 -13 -5 -13 -3 -1 11 7 10 10 17 6 17 -4 0 -2 7 5 15 9 11 16 13 24 5 17
-17 29 -11 15 8 -7 9 -10 14 -5 10 5 -4 17 -3 27 2 12 7 20 6 25 -2 5 -7 3 -8
-6 -3 -9 5 -11 4 -6 -4 10 -16 26 -3 19 16 -4 11 -2 14 8 11 8 -3 20 2 27 9
17 16 41 1 43 -26 0 -9 3 -11 5 -4 3 7 0 21 -6 33 -6 11 -7 19 -3 18 4 -1 18
3 30 10 12 7 24 8 27 3 8 -12 -4 -21 -19 -15 -21 8 -26 -12 -7 -27 15 -13 16
-12 3 3 -8 11 -9 18 -3 18 6 0 13 -4 17 -10 4 -6 15 -5 30 2 13 6 22 15 19 19
-8 14 8 10 26 -6 14 -13 17 -13 17 0 0 8 -5 11 -10 8 -5 -3 -8 0 -5 7 10 30
44 18 39 -13 -1 -5 3 -6 8 -2 12 7 -7 55 -21 55 -5 0 -7 -4 -3 -9 3 -6 -4 -8
-15 -6 -11 2 -18 0 -15 -6 4 -5 1 -9 -4 -9 -6 0 -11 5 -11 12 0 13 -14 2 -16
-13 -1 -5 -2 -13 -3 -19 -2 -18 -17 -11 -18 9 -1 17 11 28 40 36 4 2 9 4 12 5
7 3 22 7 36 9 5 0 7 6 4 11 -4 6 -3 9 2 8 4 -1 17 3 28 9 11 6 28 9 38 7 14
-2 17 2 12 14 -3 9 -3 13 1 9 4 -4 15 0 25 9 16 14 17 14 14 -3 -1 -10 -8 -17
-14 -15 -17 3 -13 -6 7 -17 14 -7 18 -5 20 10 4 48 5 48 25 37 15 -8 26 -5 48
11 15 11 30 17 34 12 3 -5 -1 -11 -7 -14 -10 -3 -10 -8 1 -18 8 -8 11 -9 7 -2
-3 6 -2 14 3 18 6 3 8 12 5 19 -3 8 2 13 13 13 36 0 43 3 43 19 0 10 6 14 14
11 10 -4 13 -1 9 9 -4 10 -9 12 -18 4 -9 -8 -14 -7 -18 3 -4 10 2 13 20 11 17
-2 23 2 19 11 -2 7 3 19 12 27 11 9 14 10 8 1 -4 -7 -2 -13 3 -13 6 0 11 5 11
11 0 5 5 7 10 4 6 -3 10 -1 10 6 0 18 31 37 52 31 10 -2 15 -8 12 -13 -3 -5
-10 -6 -16 -3 -6 4 -8 2 -4 -4 3 -6 2 -13 -4 -17 -5 -3 -10 1 -10 10 0 9 -5
13 -10 10 -6 -4 -8 -10 -5 -15 2 -4 -8 -13 -23 -19 -18 -8 -28 -20 -29 -34
l-1 -22 10 23 c6 12 15 22 20 22 5 0 6 -5 2 -12 -4 -7 -3 -8 5 -4 6 4 9 12 6
17 -6 9 3 12 38 12 10 0 15 2 12 5 -2 3 1 12 7 20 11 13 18 32 20 58 1 13 23
12 35 -1 4 -4 3 -5 -4 -1 -6 3 -15 1 -18 -4 -11 -17 -13 -60 -3 -54 5 3 8 11
7 17 -3 25 1 38 11 32 6 -4 8 -10 6 -14 -3 -3 4 -7 15 -7 18 0 19 2 4 12 -9 7
-12 15 -6 18 5 4 12 2 16 -4 9 -15 27 0 21 17 -4 11 -2 13 9 10 8 -4 17 -2 20
4 4 5 10 7 14 5 4 -3 8 1 8 9 0 13 -4 12 -19 -2 -10 -9 -18 -11 -18 -5 0 20
54 51 72 41 13 -7 15 -5 11 14 -4 21 -4 21 10 4 13 -16 15 -16 21 -2 3 9 2 13
-4 10 -6 -3 -10 -2 -10 3 0 16 13 22 27 11 8 -8 13 -8 13 -1 0 6 -6 12 -12 15
-7 2 -10 7 -6 11 3 4 17 3 30 -4 21 -10 21 -10 5 3 -11 9 -14 18 -8 21 5 4 12
2 16 -4 10 -16 25 -1 18 17 -5 12 -2 15 9 11 15 -6 19 24 4 39 -4 5 -6 4 -4
-2 1 -5 -5 -21 -15 -35 -11 -15 -17 -19 -17 -10 -1 11 -3 11 -11 -3 -6 -9 -14
-15 -18 -13 -5 3 -13 -6 -20 -21 -6 -14 -15 -23 -18 -19 -4 4 -13 -4 -20 -16
-7 -13 -12 -17 -13 -10 0 6 -5 12 -11 12 -5 0 -8 -4 -4 -9 6 -11 -34 -37 -50
-32 -5 1 -7 -1 -3 -5 11 -10 -12 -35 -26 -27 -6 3 -6 0 2 -8 16 -18 16 -34 -1
-20 -8 6 -16 8 -19 5 -3 -2 -9 3 -12 13 -4 9 -4 14 0 10 4 -4 20 4 35 19 15
14 31 27 36 27 4 1 7 5 6 9 -2 4 5 4 14 1 10 -4 14 -2 10 4 -9 14 40 46 55 37
8 -5 9 -2 5 10 -4 9 -3 15 2 12 5 -3 12 1 15 10 4 9 9 14 12 11 3 -3 19 10 36
29 24 27 33 32 49 24 11 -7 16 -17 13 -28 -5 -14 -4 -15 5 -2 7 11 6 19 -6 32
-14 16 -14 18 1 24 9 3 13 11 9 17 -3 6 -1 7 6 3 6 -4 14 0 17 9 4 11 13 14
28 9 18 -6 19 -5 8 9 -12 14 -10 19 17 35 17 10 28 21 25 25 -3 3 5 3 18 0 21
-6 22 -5 8 13 -8 10 -11 16 -6 12 11 -9 35 14 28 27 -3 6 -2 7 2 3 11 -9 36
14 28 26 -3 5 0 6 7 1 9 -5 5 -15 -14 -35 -14 -15 -25 -31 -24 -36 4 -23 -2
-33 -19 -29 -11 2 -19 -3 -19 -11 0 -11 3 -11 16 -1 12 10 14 9 8 -8 -7 -20
-7 -20 8 -1 8 11 15 23 15 28 0 4 8 5 18 2 16 -5 16 -5 0 6 -10 6 -18 16 -18
22 0 6 7 5 18 -3 15 -13 16 -12 3 4 -8 10 -9 17 -3 17 6 0 16 -8 21 -17 6 -10
11 -13 11 -8 0 6 -5 16 -12 23 -8 8 -8 15 1 26 6 7 11 18 10 22 -4 17 13 44
28 44 8 0 12 4 8 9 -6 10 13 26 30 26 6 0 11 6 11 13 3 29 4 32 12 32 5 0 9
-7 9 -15 0 -8 -4 -12 -9 -9 -5 3 -8 2 -7 -3 4 -23 -2 -35 -17 -29 -8 3 -12 2
-9 -3 3 -5 -4 -16 -15 -24 -11 -7 -17 -16 -14 -20 3 -3 -2 -17 -12 -31 -9 -15
-14 -29 -10 -33 3 -3 6 -1 6 6 0 7 5 9 12 5 6 -4 8 -3 5 3 -9 15 22 75 35 67
7 -4 8 -2 4 4 -6 11 5 16 26 13 4 0 5 6 1 15 -3 8 -2 14 3 13 5 -1 16 -1 24 0
12 1 12 4 -3 12 -12 7 -15 15 -8 27 5 9 9 19 9 22 1 3 4 13 8 23 5 15 9 16 15
5 7 -11 10 -10 21 1 10 10 10 12 1 7 -7 -4 -13 -2 -13 4 0 7 6 10 13 7 6 -2
11 -12 11 -21 -1 -10 1 -15 4 -12 3 3 11 1 18 -5 8 -7 14 -6 20 2 4 7 3 9 -4
5 -6 -3 -13 -2 -16 3 -9 14 4 42 16 35 6 -4 5 3 -1 15 -7 11 -14 21 -17 21 -3
0 -2 -4 1 -10 3 -5 1 -18 -5 -27 -9 -15 -10 -14 -7 8 1 15 17 44 35 65 18 20
32 41 32 46 0 4 4 8 8 8 5 0 9 -7 9 -15 0 -8 -4 -12 -9 -9 -4 3 -8 1 -8 -4 0
-5 12 -9 27 -9 22 0 24 2 12 11 -21 16 -18 47 9 80 12 16 22 34 22 40 0 6 5 4
10 -4 13 -21 12 -39 -1 -20 -9 13 -10 12 -5 -3 4 -13 2 -16 -7 -11 -6 4 -9 4
-5 -1 10 -11 -12 -36 -24 -29 -6 4 -4 -4 2 -17 17 -32 17 -32 24 -14 3 9 2 13
-4 10 -17 -10 -11 4 13 31 12 14 29 40 37 57 12 24 22 32 40 30 14 -1 19 1 13
3 -9 4 -10 11 -3 24 7 13 7 21 -2 26 -7 5 -8 3 -3 -6 5 -9 4 -11 -3 -6 -8 5
-10 1 -5 -10 5 -14 3 -16 -11 -11 -11 5 -15 3 -10 -5 4 -7 3 -8 -5 -4 -6 4
-11 4 -10 -1 1 -4 -3 -19 -9 -33 -6 -14 -11 -18 -11 -10 -1 9 4 21 11 28 7 7
8 12 3 12 -5 0 4 13 20 30 16 16 25 30 20 30 -4 0 0 9 10 20 17 19 19 19 38 3
20 -18 20 -18 1 12 -12 19 -14 26 -5 20 11 -6 13 -4 8 7 -7 19 20 61 34 52 6
-3 10 0 8 7 -3 27 1 37 21 42 11 3 20 11 19 19 0 10 -2 10 -6 1 -2 -7 -8 -13
-13 -13 -4 0 10 34 32 75 22 42 44 73 49 70 5 -4 9 -8 9 -11 0 -3 -4 -2 -10 1
-5 3 -10 2 -10 -3 0 -5 9 -12 20 -15 19 -5 19 -4 4 25 -9 17 -11 27 -4 23 7
-4 11 -1 9 6 -3 28 1 39 16 39 8 0 15 5 15 11 0 5 -5 7 -11 3 -6 -3 -3 5 6 20
10 14 13 26 9 26 -5 0 -3 4 4 9 7 4 15 14 16 22 6 28 28 74 39 81 6 4 21 -1
32 -10 15 -13 17 -13 8 -1 -10 12 -9 20 2 36 8 11 11 23 8 27 -10 9 -32 -14
-27 -28 3 -7 -2 -13 -10 -13 -11 0 -12 5 -6 17 5 10 6 21 2 25 -4 5 -1 5 6 1
7 -4 12 -1 12 9 0 9 4 14 8 11 4 -2 14 0 22 6 12 8 12 9 -2 4 -10 -3 -20 -1
-23 4 -4 6 -1 10 5 10 6 0 9 4 5 9 -3 5 -1 12 5 16 6 4 8 10 5 15 -3 5 -1 11
5 15 6 4 8 11 5 16 -4 5 -1 9 5 9 7 0 10 6 7 14 -3 8 1 20 9 27 8 7 12 19 10
26 -4 10 -1 13 13 8 11 -3 22 -2 25 3 3 6 -2 9 -12 8 -10 0 -16 5 -13 14 5 24
9 44 10 53 1 4 6 7 12 7 8 0 7 -6 -2 -17 -13 -15 -12 -15 7 -3 19 12 20 16 8
27 -10 10 -11 20 -4 32 5 10 6 22 2 27 -4 5 1 2 11 -5 9 -8 20 -11 24 -7 3 3
1 6 -6 6 -7 0 -9 5 -6 10 3 6 1 10 -5 10 -8 0 -9 7 -5 18 4 9 8 22 9 27 2 6 6
24 10 40 4 17 10 37 13 45 4 8 5 18 5 23 -3 12 36 46 44 39 4 -4 0 5 -9 20 -9
14 -14 36 -12 48 9 45 17 60 28 53 7 -4 5 2 -3 12 -14 17 -13 18 5 11 11 -4
16 -4 12 0 -4 4 -1 14 6 23 11 14 10 14 -5 2 -16 -12 -18 -11 -18 3 0 9 7 16
15 16 8 0 15 4 15 10 0 5 -8 7 -17 3 -15 -5 -16 -3 -5 8 6 7 12 17 12 22 0 4
-6 5 -12 1 -10 -6 -10 -5 -1 8 7 8 10 18 6 21 -3 4 -2 7 3 7 6 0 15 -5 22 -12
9 -9 15 -9 25 1 10 11 10 13 0 7 -20 -11 -36 3 -22 20 9 11 8 15 -3 19 -13 5
-16 22 -9 57 0 4 9 5 19 1 16 -5 16 -5 -1 8 -18 14 -14 55 4 43 5 -3 6 2 3 10
-3 9 -9 14 -14 11 -4 -2 -5 7 -2 20 2 14 8 25 13 25 5 0 9 7 9 15 0 8 5 15 10
15 6 0 10 5 10 12 0 9 -3 9 -12 0 -17 -17 -33 -15 -18 3 7 9 9 22 5 32 -5 10
-7 23 -5 28 1 6 4 28 6 49 2 22 6 42 9 44 2 3 0 14 -6 25 -7 13 -7 17 -1 13 6
-3 13 -2 17 4 3 5 2 10 -3 10 -11 0 -10 121 2 139 6 10 6 12 -2 7 -8 -5 -12 2
-12 19 0 16 4 24 11 20 6 -4 5 3 -3 14 -11 18 -11 23 2 31 10 6 11 10 3 10 -7
0 -13 12 -13 26 0 17 4 23 13 18 6 -4 4 1 -5 12 -19 22 -21 34 -5 53 9 12 9
13 0 7 -7 -4 -13 -3 -13 3 0 5 4 13 10 16 6 3 10 12 10 18 0 7 -4 6 -10 -3 -8
-13 -10 -12 -10 3 0 9 6 17 13 17 8 0 7 4 -3 10 -8 5 -10 10 -5 10 6 0 3 5 -5
11 -12 9 -11 10 6 6 12 -2 21 1 21 8 0 7 -9 10 -21 8 -21 -4 -21 -4 -1 13 15
12 16 15 4 11 -13 -4 -17 2 -18 31 -2 44 -5 66 -15 110 -5 22 -4 38 5 48 6 8
9 17 5 21 -3 3 -6 1 -6 -5 0 -7 -4 -12 -8 -12 -4 0 -8 9 -8 20 0 11 5 19 11
16 7 -2 12 2 12 10 0 7 -4 11 -9 8 -17 -11 -29 7 -16 24 10 12 10 14 1 8 -19
-11 -16 14 5 38 14 17 14 19 0 8 -11 -9 -18 -10 -23 -2 -3 5 -4 10 0 10 3 0 0
10 -6 23 -11 20 -11 21 5 8 14 -12 16 -12 10 3 -3 9 -10 16 -14 16 -4 0 -10 9
-13 20 -3 13 -1 18 6 13 7 -4 6 0 -1 10 -8 9 -11 20 -8 26 3 5 2 11 -4 13 -5
1 -10 18 -12 36 -1 17 -6 32 -11 32 -5 0 -7 13 -5 28 2 16 -2 34 -9 41 -20 19
-16 40 7 36 12 -2 18 0 15 6 -4 5 -10 7 -14 5 -4 -3 -13 -1 -21 4 -11 7 -12
11 0 24 11 14 10 16 -4 10 -18 -7 -22 6 -6 22 6 6 5 15 -1 24 -9 13 -10 12 -5
-2 3 -10 2 -18 -2 -18 -4 0 -12 16 -18 35 -6 19 -7 32 -1 28 5 -3 1 6 -8 20
-9 15 -13 32 -9 38 4 8 3 9 -4 5 -7 -4 -12 -3 -12 3 0 5 6 12 13 14 7 3 5 6
-5 6 -16 1 -23 18 -19 44 0 4 -4 7 -10 7 -5 0 -7 5 -4 10 3 6 0 10 -7 10 -11
0 -10 2 0 9 11 7 10 9 -3 15 -9 3 -14 10 -10 15 3 5 1 12 -5 16 -6 4 -8 11 -5
16 4 5 1 9 -6 9 -6 0 -9 8 -6 20 3 11 1 18 -4 15 -4 -3 -12 7 -15 22 -4 15
-16 42 -26 58 -10 17 -18 38 -18 48 0 9 -4 17 -10 17 -12 0 -14 26 -2 33 4 2
1 2 -5 1 -7 -2 -17 5 -23 16 -9 16 -8 19 7 14 13 -3 13 -2 -2 6 -24 14 -58 77
-49 92 5 7 2 8 -6 3 -10 -6 -12 -3 -8 13 4 13 2 19 -6 16 -6 -2 -17 8 -23 23
-10 21 -10 29 0 36 9 6 8 7 -3 4 -10 -2 -28 17 -52 55 -21 32 -38 63 -38 68 0
4 -3 10 -7 12 -9 4 -63 85 -63 94 0 4 -7 12 -14 18 -8 6 -16 18 -18 26 -2 8
-13 23 -26 33 -13 11 -21 21 -19 24 3 2 -7 17 -21 33 -39 41 -78 93 -74 98 2
3 -3 9 -12 14 -9 5 -14 14 -10 19 3 5 1 8 -4 7 -13 -4 -53 42 -46 54 3 4 1 7
-4 6 -13 -4 -53 42 -46 54 3 4 2 7 -3 6 -5 -2 -24 9 -42 25 -29 24 -31 30 -20
45 12 15 12 16 -2 5 -13 -11 -20 -8 -42 17 -15 16 -27 34 -27 40 0 5 -6 9 -12
8 -7 -2 -12 4 -10 12 2 8 0 12 -4 8 -10 -11 -35 12 -27 26 3 6 3 8 -2 4 -10
-9 -91 63 -87 77 2 5 0 7 -4 3 -9 -10 -35 12 -28 23 3 5 0 8 -8 7 -7 -2 -12 2
-11 9 2 7 -3 10 -11 7 -7 -3 -23 6 -34 20 -11 14 -24 26 -29 26 -5 0 -15 9
-23 20 -8 11 -18 20 -23 20 -14 0 -72 52 -69 62 1 4 -1 7 -5 6 -13 -3 -53 13
-53 21 0 4 -12 13 -26 19 -15 7 -22 17 -18 24 4 6 3 8 -3 5 -12 -8 -65 27 -56
37 5 4 3 7 -2 6 -22 -5 -36 1 -29 12 4 7 3 8 -4 4 -6 -4 -25 2 -42 14 -16 11
-43 29 -60 40 -16 11 -34 20 -40 20 -6 0 -13 7 -16 15 -4 8 -10 13 -14 10 -4
-3 -23 5 -41 18 -37 24 -224 117 -276 137 -18 7 -33 15 -33 19 0 4 -9 7 -19 8
-11 1 -38 11 -62 22 -23 12 -48 21 -54 21 -6 0 -16 5 -23 12 -6 6 -20 13 -29
14 -10 1 -63 18 -118 37 -55 19 -124 40 -152 47 -29 8 -53 17 -53 22 0 4 -7 5
-15 2 -8 -3 -20 -2 -27 2 -7 5 -22 9 -33 10 -11 1 -49 9 -85 17 -36 9 -78 18
-95 21 -16 3 -55 10 -85 16 -30 6 -73 13 -95 15 -22 3 -62 7 -90 11 -27 3 -70
8 -95 11 -50 5 -536 13 -542 9z m550 -1394 c2 -7 8 -12 13 -12 6 0 7 5 3 11
-5 8 -1 8 13 0 11 -6 24 -7 28 -3 5 4 5 2 1 -5 -4 -7 -14 -10 -24 -7 -15 5
-15 4 1 -6 9 -6 15 -15 12 -21 -4 -5 -1 -9 5 -9 7 0 10 6 7 14 -3 8 1 17 9 20
8 3 14 1 14 -5 0 -6 4 -8 9 -5 5 3 20 -3 34 -14 14 -11 30 -20 37 -20 6 0 9
-3 7 -7 -3 -5 5 -17 16 -28 11 -11 17 -13 13 -5 -5 8 4 1 18 -17 15 -18 26
-35 26 -39 -1 -4 3 -10 8 -13 6 -3 12 -13 14 -21 2 -8 9 -21 16 -28 7 -8 10
-17 7 -22 -3 -5 -1 -10 4 -12 5 -1 11 -14 13 -28 1 -14 6 -27 10 -30 20 -15
31 -265 16 -360 -16 -99 -21 -120 -28 -120 -5 0 -6 -10 -2 -22 4 -16 2 -19 -8
-13 -8 5 -11 4 -7 -2 5 -8 -2 -38 -29 -115 -4 -10 -11 -18 -16 -18 -5 0 -6 -4
-3 -10 7 -11 -22 -71 -39 -82 -6 -4 -7 -8 -3 -8 4 0 3 -9 -3 -20 -6 -11 -15
-18 -20 -15 -6 3 -7 0 -4 -8 8 -23 -115 -195 -209 -289 -112 -114 -286 -225
-377 -243 -10 -2 -34 -8 -53 -13 -58 -16 -185 -7 -249 17 -32 13 -58 27 -58
33 0 6 -3 9 -6 5 -3 -3 -11 -2 -18 4 -77 64 -81 69 -66 80 13 9 13 10 -2 6
-19 -7 -40 14 -35 34 2 8 2 11 0 6 -8 -14 -22 4 -16 20 4 9 2 14 -3 10 -13 -8
-38 59 -28 74 4 8 3 9 -4 5 -7 -4 -12 -3 -12 3 0 5 6 12 13 14 7 3 5 6 -5 6
-10 1 -19 7 -19 14 -4 46 -9 75 -14 97 -5 19 -4 22 4 10 9 -13 11 -13 11 3 0
9 -4 17 -9 17 -6 0 -8 42 -7 98 2 78 7 104 25 133 21 36 20 75 -3 62 -6 -4 -5
1 2 10 8 9 11 21 7 28 -5 8 0 9 16 5 20 -6 21 -5 7 4 -10 6 -18 15 -18 20 0 5
8 6 18 3 13 -5 15 -4 6 8 -5 8 -9 20 -8 27 1 6 2 17 3 24 1 7 8 5 19 -5 21
-19 34 -13 25 10 -4 10 -8 11 -13 3 -5 -8 -9 -4 -13 9 -6 22 11 29 29 11 7 -7
11 -6 11 4 0 8 -5 12 -10 9 -6 -4 -8 0 -4 10 3 9 1 19 -5 23 -6 4 -8 3 -4 -4
3 -6 2 -13 -3 -16 -5 -4 -8 2 -6 11 1 10 8 17 15 15 8 -2 10 3 7 12 -7 17 25
40 38 28 5 -4 5 -1 1 6 -4 7 -2 20 6 29 10 13 10 17 1 20 -19 7 -16 22 5 22
52 2 54 3 32 26 -19 21 -19 22 -2 41 18 19 22 26 22 44 0 5 7 7 15 4 11 -5 9
-11 -10 -32 -29 -31 -30 -35 -10 -52 12 -10 16 -9 21 4 3 9 11 13 17 9 6 -4 7
-1 2 7 -6 10 -11 9 -21 -4 -7 -11 -15 -13 -18 -7 -4 6 6 24 21 42 26 29 44 87
23 74 -6 -3 -7 1 -4 10 8 20 50 16 46 -5 -3 -12 0 -11 14 2 13 13 15 20 6 31
-7 8 -8 18 -4 22 4 5 1 5 -6 1 -10 -6 -10 -11 -1 -22 6 -8 10 -17 7 -19 -3 -3
-11 1 -18 9 -10 12 -8 21 9 44 21 30 61 67 47 45 -4 -7 -3 -13 3 -13 6 0 8 -7
5 -15 -4 -10 -10 -12 -18 -6 -8 6 -11 2 -12 -15 -1 -13 2 -24 8 -24 5 0 6 5 3
10 -3 6 -2 10 3 10 6 0 24 23 42 50 25 39 35 48 45 40 9 -8 15 -8 20 0 4 6 3
10 -2 9 -23 -4 -22 3 4 25 24 21 29 22 39 8 9 -12 13 -12 19 -2 5 9 4 11 -3 6
-23 -14 -12 13 13 32 13 11 21 22 18 26 -3 3 1 6 9 6 9 0 19 8 23 18 6 16 8
16 22 -3 12 -16 14 -16 10 -3 -3 10 -2 20 3 23 6 4 10 1 10 -4 0 -6 4 -11 10
-11 5 0 6 7 3 17 -4 11 -3 14 5 9 7 -4 12 -5 12 -2 0 2 3 13 7 23 7 17 6 17
-11 0 -10 -9 -22 -15 -27 -12 -5 4 -9 1 -9 -6 0 -7 -3 -9 -7 -6 -3 4 -12 2
-19 -4 -8 -7 -14 -6 -20 2 -4 8 -3 9 4 5 7 -4 12 -3 12 2 0 9 45 34 65 37 6 1
16 -4 24 -9 12 -9 12 -7 2 13 -8 15 -9 21 -2 17 6 -4 11 -1 11 6 0 10 2 10 9
-1 7 -11 11 -10 19 5 6 10 14 16 18 12 4 -5 14 -2 22 4 18 15 44 20 36 6 -4
-6 -1 -8 7 -6 8 3 13 11 11 18 -3 11 0 11 12 0 14 -11 20 -8 18 11 -1 11 172
3 176 -9z m-444 -134 c-4 -6 -10 -5 -15 3 -5 8 -9 12 -10 9 0 -3 -2 -13 -4
-23 -5 -27 -35 -56 -51 -50 -8 3 -14 1 -14 -5 0 -6 -18 -24 -41 -40 -22 -17
-40 -33 -39 -36 0 -4 -4 -14 -9 -24 -9 -15 -10 -16 -11 0 0 28 11 48 28 48 8
0 12 3 9 7 -11 11 14 32 30 26 12 -5 14 -3 8 7 -6 9 -4 11 5 5 10 -6 12 -4 6
11 -4 10 -4 15 0 12 4 -4 15 4 26 17 12 16 25 22 36 18 9 -3 14 -3 10 2 -11
12 11 35 28 28 7 -3 11 -10 8 -15z m-304 -319 c0 -6 -4 -7 -10 -4 -5 3 -10 11
-10 16 0 6 5 7 10 4 6 -3 10 -11 10 -16z m-64 -101 c4 -6 3 -8 -4 -4 -5 3 -13
0 -15 -6 -3 -8 -6 -6 -6 5 -1 19 14 23 25 5z m-36 -54 c0 -8 -19 -13 -24 -6
-3 5 1 9 9 9 8 0 15 -2 15 -3z m-708 -48 c-3 -5 2 -7 12 -3 10 4 15 3 11 -3
-3 -6 1 -10 10 -10 9 0 13 5 10 10 -3 6 -1 10 4 10 6 0 11 -5 11 -11 0 -6 6
-9 14 -6 7 3 21 -4 30 -14 9 -11 21 -17 26 -14 6 3 10 1 10 -4 0 -6 6 -11 13
-11 13 0 67 -50 67 -62 0 -3 -12 -4 -27 -2 -26 4 -20 -1 16 -12 11 -4 11 -7 0
-22 -13 -15 -12 -16 3 -3 10 7 15 17 12 22 -3 5 0 9 5 9 14 0 14 -23 1 -36 -7
-7 -6 -11 4 -11 8 0 13 4 10 9 -3 4 -1 8 3 8 10 0 38 -42 35 -52 -1 -5 3 -8 9
-8 5 0 7 -4 4 -10 -3 -5 -1 -10 4 -10 15 0 14 -33 -1 -50 -11 -12 -10 -12 4
-2 17 14 22 10 38 -32 8 -21 7 -26 -3 -21 -6 4 -4 0 6 -8 20 -17 22 -33 5 -40
-8 -4 -7 -6 4 -6 10 -1 15 -8 14 -18 -2 -10 1 -21 6 -24 5 -3 10 -33 11 -67 1
-33 5 -58 10 -55 12 7 8 -12 -5 -26 -8 -9 -9 -12 -1 -7 13 7 19 -169 5 -178
-4 -2 -7 -23 -5 -45 1 -23 -2 -41 -6 -41 -5 0 -6 -11 -3 -25 2 -14 0 -25 -4
-25 -5 0 -10 -14 -10 -31 -1 -17 -5 -34 -10 -38 -5 -3 -10 -17 -10 -31 -2 -39
-3 -42 -16 -34 -7 4 -8 3 -4 -5 4 -7 -2 -32 -13 -56 -12 -25 -21 -49 -21 -54
0 -5 -3 -11 -8 -13 -4 -1 -23 -29 -42 -62 -41 -68 -133 -156 -195 -185 -142
-67 -277 -41 -390 74 -51 51 -60 66 -56 88 1 5 -3 5 -9 2 -7 -4 -14 2 -17 14
-3 12 -9 21 -13 21 -4 0 -11 12 -16 28 -10 35 -9 32 -24 67 -16 37 -20 52 -22
87 0 15 -5 25 -10 22 -4 -3 -8 2 -8 11 0 10 5 14 13 10 6 -4 4 0 -6 8 -12 10
-14 17 -8 22 6 3 11 12 11 18 0 7 -4 6 -10 -3 -8 -13 -10 -13 -10 2 0 9 6 19
13 21 8 4 7 6 -4 6 -11 1 -16 12 -16 46 -1 31 3 43 11 38 8 -5 8 -3 0 8 -20
27 -22 46 -8 75 9 17 11 30 5 32 -5 2 -7 10 -4 19 4 10 2 14 -5 9 -18 -11 6
57 25 73 17 13 17 13 0 8 -15 -6 -16 -2 -11 26 3 18 7 38 7 45 0 7 6 11 13 8
10 -4 11 1 4 19 -10 26 -4 55 11 55 13 0 11 -17 -3 -24 -10 -5 -10 -7 0 -12 6
-3 9 -11 6 -16 -4 -7 -2 -8 4 -4 6 4 8 14 5 23 -4 11 -3 14 5 9 8 -4 10 -2 6
7 -3 8 2 21 10 30 18 18 20 27 7 27 -5 0 -12 -9 -16 -19 -4 -13 -12 -18 -21
-14 -12 4 -13 8 -4 13 7 5 9 13 5 20 -5 8 -4 11 2 7 6 -4 18 2 28 13 10 11 13
20 7 20 -6 0 -12 -6 -15 -12 -2 -7 -7 -10 -11 -7 -4 4 0 14 10 23 12 13 19 14
30 5 10 -8 14 -8 14 0 0 6 -4 11 -10 11 -5 0 -10 5 -10 11 0 6 7 9 14 6 11 -4
13 -1 9 10 -5 13 -2 15 11 10 9 -4 15 -3 11 2 -3 5 1 11 7 14 7 2 1 4 -14 3
-14 0 -26 -3 -25 -6 1 -3 -6 -16 -16 -30 -9 -13 -17 -19 -17 -13 0 6 6 18 13
25 14 13 17 19 25 50 2 9 11 19 19 22 13 5 13 2 -1 -21 l-17 -28 20 24 c24 26
27 41 9 41 -10 0 -10 2 0 9 8 4 12 10 11 12 -2 2 4 15 14 29 9 13 17 21 17 16
0 -5 7 -3 15 4 8 6 14 15 13 18 -2 20 5 29 32 46 17 9 27 22 24 28 -4 6 -2 8
4 4 6 -3 18 4 26 16 9 12 16 17 16 10 0 -6 5 -12 11 -12 5 0 8 4 5 9 -3 5 1
14 9 21 10 9 15 9 15 1 0 -6 5 -11 11 -11 5 0 8 4 4 9 -3 5 -1 12 4 15 5 4 12
2 16 -4 4 -6 11 -8 16 -5 5 4 9 1 9 -5 0 -7 -7 -9 -16 -6 -10 4 -13 2 -8 -6 4
-7 3 -8 -4 -4 -7 4 -12 2 -12 -5 0 -10 -3 -10 -12 -1 -14 14 -32 16 -24 3 6
-10 -44 -47 -57 -43 -5 1 -6 -2 -2 -7 3 -6 13 -7 22 -4 12 5 14 3 8 -7 -5 -9
-4 -11 4 -6 6 4 9 12 5 17 -3 6 2 17 12 24 28 21 40 18 19 -5 -10 -11 -13 -20
-8 -20 6 0 14 7 17 16 3 8 10 12 16 9 6 -4 7 -11 4 -17 -4 -7 -2 -8 5 -4 8 6
9 12 2 20 -15 18 28 37 55 24 19 -9 19 -9 0 6 -11 9 -17 19 -13 22 4 4 14 1
24 -7 11 -9 14 -10 9 -1 -4 7 -2 12 4 12 6 0 8 5 4 11 -4 8 -9 7 -15 -2 -5 -8
-9 -9 -9 -3 0 17 7 20 54 20 25 -1 42 -5 38 -10z m2672 2 c-8 -12 10 -10 23 3
8 8 17 8 31 0 11 -6 28 -8 36 -5 9 4 16 1 16 -6 0 -7 6 -10 14 -7 8 3 20 -1
27 -9 6 -8 14 -12 17 -10 12 13 124 -85 155 -136 16 -25 16 -28 -1 -38 -15 -9
-14 -10 6 -5 20 6 24 1 21 -21 0 -4 5 -10 11 -14 7 -4 13 -19 13 -34 1 -14 6
-26 11 -26 4 0 6 -6 3 -14 -3 -8 -2 -16 4 -18 5 -2 12 -37 15 -78 3 -41 8 -77
10 -79 2 -2 -1 -10 -7 -17 -6 -7 -6 -15 -1 -18 11 -7 -5 -170 -23 -236 -1 -3
-5 -18 -9 -35 -4 -16 -11 -39 -16 -50 -5 -11 -16 -43 -26 -72 -10 -29 -22 -49
-27 -46 -6 3 -7 1 -4 -4 4 -6 0 -28 -9 -49 -15 -36 -88 -166 -107 -189 -4 -5
-24 -32 -44 -60 -99 -133 -272 -278 -403 -337 -151 -68 -329 -72 -434 -10 -55
32 -141 110 -132 119 2 3 -4 13 -15 24 -11 11 -17 24 -14 29 3 4 1 10 -5 12
-5 1 -11 12 -13 23 -1 11 -7 27 -12 35 -10 17 -16 36 -18 63 -1 9 -4 17 -7 17
-3 0 -6 15 -7 33 -1 17 -4 42 -7 55 -3 13 -1 20 5 17 5 -4 9 -1 9 4 0 6 -4 11
-8 11 -4 0 -8 9 -9 20 -1 11 2 20 8 20 5 0 9 -6 9 -14 0 -8 4 -18 10 -21 16
-10 -1 28 -19 44 -14 12 -14 13 7 8 12 -3 20 -1 16 4 -3 5 -11 9 -18 9 -10 0
-13 13 -11 48 2 26 4 47 5 47 3 0 10 41 12 68 0 15 5 30 9 33 4 2 6 14 4 25
-2 11 2 22 10 26 8 3 15 9 15 15 0 5 -4 6 -10 3 -5 -3 -3 10 5 28 8 19 11 37
8 41 -4 3 -1 6 6 6 7 0 9 5 5 11 -4 7 2 6 17 -1 23 -13 24 -12 6 7 -17 20 -14
53 5 53 7 0 6 -5 -1 -14 -9 -10 -7 -17 6 -27 17 -13 17 -13 3 5 -14 18 -13 19
2 13 10 -3 20 -1 24 5 4 6 3 8 -2 5 -6 -3 -16 3 -22 14 -11 17 -10 20 4 17 9
-2 19 4 21 12 4 13 3 13 -6 0 -8 -11 -11 -12 -11 -2 0 7 -5 10 -12 6 -7 -4 -8
-3 -4 5 4 6 12 8 18 5 7 -5 9 -2 5 8 -3 9 2 26 11 39 9 13 17 29 18 36 4 22
34 58 51 58 18 0 27 31 12 41 -9 5 18 45 71 102 14 15 25 29 25 32 1 18 150
165 169 165 6 1 10 7 8 15 -3 11 0 11 12 0 19 -15 21 -24 4 -14 -7 5 -8 3 -3
-6 6 -9 4 -11 -5 -5 -9 6 -11 4 -5 -5 6 -9 4 -11 -5 -5 -9 5 -11 4 -6 -4 4 -6
3 -18 -4 -26 -9 -11 -7 -13 7 -11 10 2 18 9 19 17 2 29 4 31 18 20 18 -15 16
2 -2 37 -10 18 -10 22 0 20 7 -2 12 3 11 10 -2 6 0 11 5 11 19 -3 42 2 40 9
-2 4 0 7 4 7 3 0 19 11 34 25 15 14 24 19 20 13 -11 -20 8 -15 26 6 22 26 61
22 63 -6 1 -13 5 -26 10 -30 4 -5 4 3 0 15 -6 21 -5 23 13 13 26 -14 32 -14
32 0 0 5 -4 8 -9 5 -4 -3 -16 1 -26 8 -17 12 -16 13 11 12 16 0 32 -5 36 -11
5 -6 8 -5 8 3 0 8 5 10 13 5 6 -4 21 -9 32 -10 16 -2 17 -1 5 6 -8 5 -18 7
-22 5 -4 -3 -8 -1 -8 4 0 6 7 12 15 16 8 3 15 1 15 -4 0 -6 5 -10 11 -10 5 0
7 5 4 10 -10 17 12 11 31 -7 17 -17 18 -17 11 1 -5 13 -3 17 7 13 10 -4 13 -1
9 9 -4 11 -9 12 -19 3 -11 -9 -18 -8 -29 1 -12 10 -15 10 -15 0 0 -8 -3 -10
-6 -7 -4 3 -16 1 -28 -5 -26 -14 -86 -19 -86 -7 0 9 5 11 33 13 6 1 15 6 19
11 5 6 8 5 8 -2 0 -7 5 -13 11 -13 5 0 7 5 3 12 -4 6 -3 9 2 6 5 -3 18 -2 28
1 26 10 96 9 90 -1z m-2774 -2 c0 -3 -4 -8 -10 -11 -5 -3 -10 -1 -10 4 0 6 5
11 10 11 6 0 10 -2 10 -4z m700 -266 c0 -5 -4 -10 -10 -10 -5 0 -10 5 -10 10
0 6 5 10 10 10 6 0 10 -4 10 -10z m-16 -35 c-4 -8 -8 -15 -10 -15 -2 0 -4 7
-4 15 0 8 4 15 10 15 5 0 7 -7 4 -15z m1373 -190 c0 -8 -4 -12 -9 -9 -4 3 -8
9 -8 15 0 5 4 9 8 9 5 0 9 -7 9 -15z m-1121 -1055 c16 -13 17 -13 12 0 -4 11
1 16 16 17 11 0 15 -1 9 -4 -7 -3 -13 -12 -13 -20 0 -10 6 -13 16 -9 10 4 25
-1 35 -10 17 -15 18 -15 13 10 -4 22 -1 25 16 23 11 -2 26 -9 33 -17 9 -10 9
-11 0 -6 -19 10 -16 1 4 -15 11 -10 14 -10 9 -1 -4 7 -2 12 4 12 6 0 8 5 4 11
-4 8 0 8 15 0 11 -7 21 -8 21 -4 0 4 5 2 11 -4 6 -6 17 -10 23 -9 6 2 8 1 4
-1 -18 -10 -7 -23 11 -13 14 7 22 7 26 0 4 -6 11 -8 16 -4 5 3 9 2 8 -3 -6
-25 15 -40 58 -42 52 -1 58 -4 48 -21 -6 -9 -10 -9 -17 1 -6 10 -7 7 -3 -10 5
-17 4 -22 -5 -16 -9 6 -11 4 -5 -5 7 -11 12 -9 23 8 8 12 20 22 26 22 12 0
155 -89 143 -90 -4 0 -25 12 -47 26 -22 15 -43 24 -47 20 -3 -3 0 -6 8 -7 9 0
6 -4 -6 -10 -18 -8 -17 -9 5 -5 23 4 65 -15 55 -25 -2 -3 7 -6 21 -7 13 -1 34
-11 46 -22 12 -11 25 -20 30 -20 4 0 8 -5 8 -11 0 -8 -4 -8 -14 0 -11 9 -16 9
-22 0 -4 -7 -3 -9 4 -5 5 3 20 -6 32 -21 16 -21 19 -23 10 -5 -13 27 -6 28 20
2 21 -21 27 -35 10 -25 -5 3 -10 1 -10 -4 0 -6 10 -11 23 -11 20 0 57 -43 58
-67 0 -5 7 -11 14 -16 8 -4 11 -15 8 -24 -4 -11 -3 -14 5 -9 7 4 12 1 12 -8 0
-25 2 -30 18 -42 8 -6 12 -16 8 -22 -3 -5 -2 -12 3 -14 4 -1 12 -14 16 -27 5
-15 4 -21 -3 -17 -6 3 -14 2 -17 -4 -4 -6 -3 -10 2 -9 19 3 33 -2 33 -12 0 -5
-6 -7 -12 -3 -7 4 -6 -1 3 -12 9 -10 15 -29 14 -41 -1 -12 2 -20 7 -17 4 3 8
-3 8 -13 0 -10 6 -42 14 -71 7 -29 9 -55 5 -58 -5 -3 -9 -11 -9 -17 0 -7 4 -6
11 3 8 12 10 9 6 -12 -2 -15 -1 -29 3 -30 5 -2 10 -28 11 -58 2 -30 9 -59 14
-63 6 -6 5 -10 -4 -14 -7 -3 -9 -8 -4 -12 6 -3 13 -28 16 -54 5 -37 4 -46 -6
-41 -7 5 -6 1 2 -10 14 -16 21 -72 25 -178 0 -27 4 -48 8 -48 3 0 5 -23 5 -50
-1 -28 2 -50 7 -50 5 0 3 -6 -3 -14 -7 -9 -8 -17 -2 -20 5 -3 8 -17 6 -31 -1
-14 1 -28 6 -31 5 -2 4 -15 -1 -28 -5 -13 -6 -27 -2 -30 3 -4 7 -16 9 -27 2
-14 -1 -18 -9 -13 -10 5 -10 4 -1 -6 9 -10 10 -17 2 -27 -8 -9 -8 -13 -1 -13
11 0 15 -316 4 -335 -3 -5 -8 -27 -10 -48 -4 -50 -51 -159 -85 -196 -15 -17
-27 -33 -27 -37 0 -8 -57 -56 -99 -82 -31 -19 -77 -36 -131 -49 -23 -5 -122
-4 -150 2 -98 20 -129 29 -123 38 3 6 1 7 -5 3 -6 -4 -31 3 -54 16 -24 12 -45
22 -48 23 -18 2 -88 50 -84 56 3 5 -2 6 -10 3 -9 -4 -18 1 -22 10 -3 9 -12 16
-18 16 -18 0 -58 45 -49 54 5 4 1 6 -7 4 -8 -2 -14 3 -12 10 1 6 -2 11 -7 10
-9 -3 -71 62 -71 74 0 4 -11 19 -25 34 -34 36 -55 81 -49 102 5 14 4 15 -5 2
-8 -12 -11 -12 -17 5 -14 35 -148 178 -158 167 -3 -3 -6 -1 -6 4 0 5 -16 18
-35 28 -19 10 -32 23 -29 28 3 5 2 7 -3 6 -15 -4 -53 13 -53 24 0 6 -3 9 -6 5
-3 -3 -24 5 -45 19 -21 13 -43 24 -49 24 -6 0 -8 5 -4 12 4 7 3 8 -5 4 -6 -4
-18 -3 -26 4 -39 32 -201 80 -286 84 -37 2 -72 6 -77 10 -6 3 -13 2 -16 -3 -4
-5 -28 -7 -54 -5 -26 3 -63 6 -82 8 -19 2 -45 4 -58 5 -13 0 -21 4 -19 9 3 4
-13 8 -35 9 -22 0 -45 6 -51 12 -6 6 -19 11 -30 11 -11 0 -15 4 -11 12 4 7 3
8 -4 4 -21 -13 -207 97 -196 116 5 7 3 8 -5 3 -8 -4 -22 1 -35 13 -51 50 -62
61 -82 83 -22 25 -68 106 -70 124 0 6 -6 23 -13 40 -10 25 -10 36 3 63 9 18
12 31 7 28 -15 -10 -19 18 -5 34 9 11 10 20 3 30 -9 13 -10 12 -5 -2 5 -18 -9
-34 -18 -20 -3 5 1 18 9 28 18 24 19 38 3 28 -7 -4 -4 2 6 14 14 17 16 22 5
22 -9 1 -6 8 9 20 17 14 29 17 41 11 11 -6 23 -6 32 0 12 8 12 10 -1 8 -27 -3
-37 1 -37 14 0 6 -2 17 -4 22 -6 15 54 95 68 90 7 -2 15 1 19 7 4 6 3 8 -4 4
-6 -3 -14 -2 -17 4 -4 6 -1 9 6 8 7 -2 13 4 14 12 0 17 75 33 75 16 0 -6 5 -4
10 4 5 8 10 11 10 5 0 -5 5 -2 11 8 9 15 13 16 27 5 12 -10 14 -10 8 0 -4 7
-2 12 6 12 10 0 10 2 -1 9 -9 6 -10 11 -2 15 13 8 5 26 -11 26 -5 0 -7 -7 -4
-16 4 -10 2 -13 -6 -8 -7 4 -8 3 -4 -5 5 -7 2 -10 -6 -9 -7 2 -12 -3 -11 -9 3
-14 -13 -18 -20 -5 -2 4 -3 2 -1 -3 1 -6 -9 -11 -22 -11 -13 0 -22 2 -20 4 3
2 7 2 9 0 3 -1 15 9 27 25 12 15 26 25 31 22 5 -4 9 -2 9 4 0 6 10 15 21 22
12 6 19 7 15 1 -3 -5 1 -13 10 -16 8 -3 12 -2 9 4 -3 5 4 8 15 7 11 -1 19 -6
16 -12 -2 -7 2 -12 10 -12 16 0 19 13 4 22 -8 5 -7 12 2 23 11 15 11 15 -7 0
-13 -10 -26 -14 -34 -9 -9 6 -10 11 -2 15 6 4 11 2 11 -4 0 -6 5 -8 10 -5 6 4
8 10 5 15 -3 4 3 7 12 5 10 -2 21 -4 26 -4 4 -1 7 -8 7 -17 0 -9 -5 -12 -12
-8 -7 4 -9 3 -5 -1 4 -5 14 -10 22 -11 10 -2 12 3 5 21 -9 22 -5 35 11 35 4 0
6 -9 4 -20 -2 -11 0 -22 5 -25 4 -3 7 3 5 12 -3 23 31 57 48 46 19 -12 37 -12
37 -1 0 6 -6 8 -14 5 -7 -3 -18 -1 -24 5 -8 8 -15 8 -25 0 -8 -7 -18 -8 -22
-4 -5 4 -5 1 0 -7 6 -10 4 -12 -4 -7 -6 4 -18 2 -26 -4 -8 -7 -15 -10 -15 -6
0 3 0 9 0 14 0 4 5 8 10 8 6 1 15 2 21 3 5 0 7 7 3 14 -4 6 -3 9 1 4 5 -4 17
1 28 10 11 10 17 13 14 7 -8 -14 30 -26 39 -12 3 5 11 2 18 -8 10 -13 15 -14
21 -4 5 9 4 11 -3 6 -7 -4 -12 -4 -12 1 0 10 16 35 21 33 8 -3 39 12 39 19 0
4 -7 8 -15 8 -8 0 -11 -5 -8 -10 4 -6 1 -7 -7 -2 -9 5 -11 4 -6 -4 4 -6 4 -11
-1 -10 -19 3 -34 -2 -29 -9 3 -5 -1 -9 -9 -9 -8 0 -15 4 -15 9 0 4 5 8 11 8 5
0 7 5 3 12 -4 7 -3 8 5 4 6 -4 18 0 27 8 9 9 19 14 24 11 5 -3 10 -2 12 2 1 5
17 18 35 30 26 19 33 20 43 8 10 -12 8 -13 -9 -10 -12 2 -20 -1 -18 -8 1 -7
-6 -11 -15 -9 -21 3 -29 -10 -16 -28 8 -12 9 -12 4 3 -3 9 -1 17 4 17 6 0 10
-10 10 -22 1 -19 3 -18 15 9 10 23 19 31 29 27 9 -3 14 -9 11 -13 -2 -4 2 -8
10 -8 11 0 12 4 4 14 -9 10 -8 18 2 31 13 15 12 16 -2 4 -14 -10 -18 -10 -22
1 -5 15 21 16 54 2 10 -4 19 0 23 11 6 15 8 15 34 -2 21 -13 24 -14 14 -2 -11
14 -8 17 18 27 18 6 29 15 25 21 -3 5 -1 10 4 10 6 0 11 -6 11 -12 0 -7 5 -5
11 5 9 15 13 16 27 5 13 -11 14 -11 7 2 -16 25 -14 41 3 38 11 -2 17 4 17 16
0 11 6 21 13 24 6 2 12 -1 12 -8 0 -6 -5 -8 -12 -4 -7 4 -8 3 -4 -4 4 -7 14
-9 24 -4 25 11 57 9 57 -5 0 -6 3 -14 7 -18 9 -9 5 16 -5 33 -5 6 -4 12 0 12
5 0 15 -6 23 -12 12 -11 12 -10 2 3 -6 9 -8 19 -4 23 4 4 0 6 -8 4 -8 -1 -21
-10 -28 -18 -9 -10 -11 -10 -7 -2 6 11 3 12 -14 3 -14 -8 -21 -8 -21 -1 0 5 7
10 15 10 8 0 15 5 15 12 0 6 3 8 7 5 3 -4 15 1 26 10 11 10 17 13 14 6 -4 -6
-3 -14 3 -18 5 -3 10 1 10 9 0 8 5 18 11 21 13 9 8 -27 -6 -37 -5 -4 -6 -10
-2 -15 10 -9 28 17 21 29 -6 9 39 4 55 -6 5 -4 13 -2 16 4 4 6 3 10 -2 9 -4
-1 -14 -1 -22 0 -24 2 -1 15 27 16 15 0 38 8 51 17 13 10 27 15 31 13 3 -2 7
6 7 18 2 19 1 20 -8 5 -6 -11 -16 -15 -26 -11 -12 5 -14 3 -8 -7 5 -8 4 -11
-3 -6 -6 3 -13 2 -17 -4 -4 -6 -11 -8 -16 -5 -5 4 -9 2 -9 -4 0 -5 -9 -9 -20
-8 -11 1 -20 4 -20 7 0 10 35 27 53 24 9 -1 17 1 17 6 0 10 49 24 75 21 17 -2
17 0 5 8 -11 8 -11 11 -2 12 22 3 27 4 40 12 7 5 12 3 12 -4 0 -8 5 -6 13 5 7
9 21 19 32 21 11 2 21 4 23 4 1 1 5 1 10 2 4 0 14 6 22 12 13 10 13 10 1 -5
-8 -11 -9 -18 -3 -18 6 0 15 7 20 17 5 9 18 17 28 18 11 0 25 5 32 9 7 4 16 5
19 2 3 -3 13 -1 20 6 16 13 75 19 67 6 -3 -4 2 -8 11 -8 10 0 13 5 9 12 -5 8
-2 9 9 5 9 -3 19 -2 22 3 8 13 39 7 61 -10z m78 -6 c5 -14 4 -15 -9 -4 -17 14
-19 20 -6 20 5 0 12 -7 15 -16z m286 -69 c0 -9 -55 4 -58 13 -2 8 5 9 27 1 17
-6 31 -12 31 -14z m1694 -37 c-3 -4 2 -8 11 -8 9 0 14 4 11 9 -7 11 78 1 90
-11 3 -4 13 -4 22 -1 15 4 15 3 2 -7 -12 -9 -10 -10 13 -5 21 4 27 3 21 -6 -5
-9 -1 -10 14 -7 13 4 23 0 26 -9 3 -8 10 -11 16 -8 6 3 13 -1 16 -9 3 -9 9
-14 14 -11 11 7 53 -42 46 -54 -5 -7 -1 -8 10 -4 13 5 15 3 8 -8 -12 -20 -14
-40 -3 -33 5 3 7 10 4 15 -4 5 -2 9 4 9 12 0 44 -65 44 -89 0 -9 5 -19 11 -23
8 -6 6 -11 -4 -18 -11 -7 -11 -10 -2 -10 10 0 12 -17 11 -65 -1 -36 -6 -65
-12 -65 -5 0 -7 -7 -3 -15 19 -51 -108 -275 -222 -391 -120 -122 -306 -237
-448 -279 -62 -18 -63 -18 -134 -30 -66 -12 -200 -8 -216 6 -8 7 -17 9 -20 6
-10 -10 -64 14 -57 26 3 6 1 7 -6 3 -6 -4 -26 3 -44 16 -42 30 -92 78 -82 78
5 0 1 6 -10 13 -10 8 -15 19 -11 25 4 7 3 12 -2 12 -5 0 -14 11 -20 25 -15 32
-15 38 -2 30 14 -9 12 4 -3 20 -19 19 -14 160 7 193 4 7 5 16 2 19 -3 4 1 17
10 31 8 13 13 26 10 29 -3 3 3 18 14 33 11 15 17 30 14 32 -2 3 7 4 21 3 14
-2 23 1 19 6 -3 5 -1 9 4 9 17 0 22 -13 9 -29 -11 -14 -10 -14 6 -2 13 10 14
17 7 26 -8 10 -6 15 7 18 10 2 4 4 -14 3 -17 0 -31 -4 -30 -8 2 -6 -11 -11
-15 -5 -1 1 5 12 12 24 9 14 18 19 25 13 6 -5 17 -5 25 2 13 8 12 9 -2 5 -21
-7 -31 18 -12 33 8 7 14 19 14 26 0 8 11 16 25 20 14 3 25 10 25 16 0 5 -6 6
-12 3 -7 -4 -5 0 4 8 10 8 15 17 11 21 -4 4 1 4 10 0 10 -3 17 -3 15 2 -4 15
22 55 33 49 5 -4 9 0 9 7 0 7 15 23 34 36 18 12 48 36 66 52 18 16 37 27 41
24 5 -3 9 1 10 8 0 7 5 3 11 -9 6 -13 15 -23 20 -23 4 0 3 9 -4 20 -15 24 -8
31 37 35 31 3 36 1 31 -13 -3 -9 6 -4 20 12 25 29 26 30 8 44 -18 14 -18 14 1
8 11 -4 24 -8 30 -9 5 -1 16 -9 22 -17 11 -13 12 -12 6 4 -5 14 -3 17 7 11 8
-5 11 -4 7 2 -10 16 20 24 32 9 6 -7 8 -15 5 -18 -3 -3 -1 -9 4 -12 11 -7 10
19 -1 30 -10 11 -8 26 2 19 5 -3 12 -1 16 4 3 6 -4 8 -17 4 -13 -3 -31 -6 -40
-6 -9 -1 -14 -6 -11 -11 4 -5 1 -6 -7 -1 -8 5 -11 4 -6 -3 7 -12 -20 -10 -31
3 -4 4 -2 5 5 1 7 -4 15 -1 18 9 4 10 13 13 26 9 14 -4 18 -2 14 5 -5 7 -1 8
10 4 13 -5 15 -3 9 8 -8 12 -6 12 8 0 16 -12 22 -8 18 12 -1 5 3 6 8 3 5 -4
12 -2 16 3 3 5 14 8 25 6 11 -2 22 1 25 6 4 5 11 7 16 4 5 -4 9 -1 9 6 0 8 4
8 15 -1 12 -10 15 -10 15 1 0 12 2 12 9 0 6 -9 11 -10 15 -2 4 6 13 11 19 11
7 0 6 -4 -3 -10 -12 -8 -9 -10 13 -10 20 0 26 -4 21 -12 -6 -10 -5 -10 8 -1
15 13 28 8 28 -9 0 -5 -4 -6 -10 -3 -5 3 -10 1 -10 -5 0 -7 6 -10 13 -8 15 6
18 46 4 55 -6 3 -7 1 -3 -5 3 -6 -1 -9 -11 -7 -10 2 -22 4 -28 4 -5 1 -4 5 2
9 17 10 63 10 57 0z m-2660 -69 c-3 -5 -10 -7 -15 -3 -5 3 -7 10 -3 15 3 5 10
7 15 3 5 -3 7 -10 3 -15z m2278 -46 c-6 -3 -10 -9 -6 -14 3 -5 0 -9 -5 -9 -6
0 -11 6 -11 13 0 8 -4 7 -10 -3 -8 -13 -10 -13 -10 1 0 11 9 16 28 16 15 0 21
-2 14 -4z m-62 -13 c-8 -5 -19 -10 -25 -10 -5 0 -3 5 5 10 8 5 20 10 25 10 6
0 3 -5 -5 -10z m-2406 -19 c3 -5 -2 -8 -12 -7 -9 0 -16 -3 -15 -9 2 -17 -25
-37 -33 -24 -4 7 4 20 17 30 27 21 35 23 43 10z m-78 -46 c0 -22 -7 -27 -32
-24 -4 0 -11 -5 -15 -13 -7 -11 -11 -10 -19 2 -14 22 5 36 26 19 16 -12 17
-12 11 3 -4 11 0 21 11 27 9 6 17 11 18 11 0 0 0 -11 0 -25z m-82 -34 c3 -5 0
-14 -8 -20 -10 -9 -17 -7 -27 6 -9 11 -10 14 -1 9 6 -4 12 -2 12 3 0 13 17 14
24 2z m4936 -225 c0 -3 -4 -8 -10 -11 -5 -3 -10 -1 -10 4 0 6 5 11 10 11 6 0
10 -2 10 -4z m-5615 -277 c-4 -5 -12 -9 -18 -8 -9 0 -8 2 1 6 6 2 9 10 6 15
-4 7 -2 8 5 4 6 -4 9 -12 6 -17z m5541 -17 c-17 -16 -18 -16 -5 5 7 12 15 20
18 17 3 -2 -3 -12 -13 -22z m-5592 -192 c-6 -6 -10 -3 -10 10 0 13 4 16 10 10
7 -7 7 -13 0 -20z m128 -2004 c7 4 8 2 4 -5 -9 -13 -26 -5 -25 12 0 9 2 8 6
-1 2 -6 10 -9 15 -6z m3843 -66 c0 -8 -12 -15 -28 -15 -15 -1 -35 -9 -45 -17
-34 -29 -45 -33 -32 -9 6 12 15 19 21 16 5 -4 9 -1 9 4 0 6 5 11 11 11 6 0 17
7 26 15 17 18 38 15 38 -5z m-631 -302 c-3 -4 -11 -5 -19 -2 -7 3 -18 -4 -25
-15 -6 -12 -14 -21 -18 -21 -10 0 -13 40 -4 41 31 3 47 10 51 20 2 8 6 8 12
-2 4 -7 6 -16 3 -21z"/>
<path d="M3882 5994 c-7 -8 -17 -12 -23 -9 -5 4 -9 2 -9 -4 0 -5 5 -13 10 -16
6 -3 10 -1 10 4 0 6 5 11 11 11 6 0 9 -6 6 -13 -3 -8 1 -14 8 -14 8 0 11 7 7
16 -5 13 -1 13 22 -3 16 -10 26 -14 22 -8 -3 5 1 15 9 22 8 7 15 17 15 22 0 6
-9 0 -20 -13 -10 -13 -19 -19 -20 -13 0 5 4 14 10 20 6 6 -1 10 -18 10 -15 1
-33 -5 -40 -12z m43 -3 c-9 -8 -36 -10 -30 -2 2 4 11 8 20 8 8 0 13 -3 10 -6z"/>
<path d="M3985 5999 c-3 -4 3 -15 13 -26 9 -10 14 -14 10 -9 -13 16 -9 31 4
18 7 -7 21 -11 33 -11 16 1 16 2 3 6 -9 2 -16 10 -14 16 1 7 1 9 -1 5 -3 -5
-9 -8 -14 -8 -6 0 -8 4 -5 8 3 5 -2 9 -10 9 -8 0 -17 -4 -19 -8z"/>
<path d="M3787 5969 c-11 -15 -17 -18 -17 -9 -1 10 -7 8 -20 -9 -23 -27 -27
-48 -6 -29 8 7 12 16 9 21 -2 4 1 7 6 7 6 0 11 -6 11 -12 1 -7 6 -3 13 9 11
19 14 20 31 7 24 -17 36 -18 36 -2 0 6 -3 9 -6 5 -4 -3 -14 3 -24 15 l-17 21
-16 -24z"/>
<path d="M3965 5971 c-6 -11 13 -26 22 -17 4 3 1 6 -6 6 -7 0 -9 5 -6 10 3 6
4 10 1 10 -3 0 -7 -4 -11 -9z"/>
<path d="M4120 5959 c0 -5 6 -9 13 -8 27 3 38 -1 31 -13 -4 -7 -4 -10 1 -6 4
4 15 3 24 -4 9 -7 7 -2 -4 10 -22 24 -65 37 -65 21z"/>
<path d="M3787 5927 c-3 -8 0 -14 7 -14 7 0 13 6 13 14 0 7 -4 13 -8 13 -4 0
-9 -6 -12 -13z"/>
<path d="M3714 5902 c3 -5 0 -13 -6 -15 -9 -4 -10 -6 -1 -6 17 -1 25 16 12 25
-7 4 -9 3 -5 -4z"/>
<path d="M4240 5872 c0 -6 -8 -9 -17 -6 -15 5 -16 4 -3 -5 16 -11 40 3 27 16
-4 3 -7 1 -7 -5z"/>
<path d="M4260 5860 c0 -5 5 -10 11 -10 5 0 7 -5 3 -12 -4 -7 -3 -8 5 -4 9 6
9 11 0 22 -14 17 -19 18 -19 4z"/>
<path d="M3616 5843 c-6 -14 -5 -15 5 -6 7 7 10 15 7 18 -3 3 -9 -2 -12 -12z"/>
<path d="M3591 5813 c-1 -17 16 -25 25 -12 4 7 3 9 -4 5 -5 -3 -13 0 -15 6 -4
9 -6 10 -6 1z"/>
<path d="M3510 5762 c0 -5 7 -9 15 -9 8 0 12 4 9 9 -3 4 -9 8 -15 8 -5 0 -9
-4 -9 -8z"/>
<path d="M3509 5723 c-13 -16 -12 -17 4 -4 9 7 17 15 17 17 0 8 -8 3 -21 -13z"/>
<path d="M3456 5713 c-6 -14 -5 -15 5 -6 7 7 10 15 7 18 -3 3 -9 -2 -12 -12z"/>
<path d="M3440 5680 c-9 -6 -10 -10 -3 -10 6 0 15 5 18 10 8 12 4 12 -15 0z"/>
<path d="M3321 5564 c0 -11 3 -14 6 -6 3 7 2 16 -1 19 -3 4 -6 -2 -5 -13z"/>
<path d="M3304 5518 l-19 -23 23 19 c21 18 27 26 19 26 -2 0 -12 -10 -23 -22z"/>
<path d="M3230 5410 c-9 -6 -10 -10 -3 -10 6 0 15 5 18 10 8 12 4 12 -15 0z"/>
<path d="M3214 5375 c-3 -8 -4 -20 -1 -27 3 -7 6 -3 6 10 1 15 5 21 13 16 7
-4 8 -3 4 4 -10 16 -15 15 -22 -3z"/>
<path d="M3175 5330 c3 -5 8 -10 11 -10 2 0 4 5 4 10 0 6 -5 10 -11 10 -5 0
-7 -4 -4 -10z"/>
<path d="M3113 5205 c0 -8 6 -16 14 -19 11 -4 11 -1 3 14 -13 24 -17 25 -17 5z"/>
<path d="M3110 5098 c0 -4 4 -8 9 -8 6 0 12 4 15 8 3 5 -1 9 -9 9 -8 0 -15 -4
-15 -9z"/>
<path d="M3070 5000 c0 -5 5 -10 10 -10 6 0 10 5 10 10 0 6 -4 10 -10 10 -5 0
-10 -4 -10 -10z"/>
<path d="M3105 5000 c-3 -6 1 -7 9 -4 18 7 21 14 7 14 -6 0 -13 -4 -16 -10z"/>
<path d="M3066 4964 c-4 -9 -4 -19 -1 -22 3 -3 5 0 5 7 0 7 4 9 10 6 6 -3 7 1
4 9 -8 20 -10 20 -18 0z"/>
<path d="M3070 4925 c-7 -9 -11 -17 -9 -20 3 -2 10 5 17 15 14 24 10 26 -8 5z"/>
<path d="M3073 4883 c-3 -10 -8 -21 -10 -25 -2 -4 2 -5 9 -3 8 3 14 14 14 25
0 25 -5 25 -13 3z"/>
<path d="M3075 4771 c-3 -5 -2 -12 3 -15 5 -3 9 1 9 9 0 17 -3 19 -12 6z"/>
<path d="M3530 5835 c-10 -12 -10 -15 3 -15 19 0 31 16 18 24 -5 3 -14 -1 -21
-9z"/>
<path d="M2440 5340 c8 -5 10 -10 4 -10 -7 0 -14 -10 -17 -22 -6 -22 -6 -22
13 2 16 20 22 22 29 11 5 -7 14 -10 21 -6 17 11 -3 28 -37 31 -21 2 -24 1 -13
-6z"/>
<path d="M2542 5320 c2 -18 -4 -23 -12 -10 -6 9 -10 10 -10 3 0 -16 17 -26 25
-13 3 5 13 10 21 10 9 0 12 -5 8 -12 -4 -7 -3 -8 4 -4 16 10 4 32 -18 32 -10
0 -18 -3 -18 -6z"/>
<path d="M2450 5300 c0 -5 5 -10 11 -10 5 0 7 5 4 10 -3 6 -8 10 -11 10 -2 0
-4 -4 -4 -10z"/>
<path d="M2497 5303 c-9 -8 12 -33 27 -33 6 0 3 5 -7 11 -9 6 -15 14 -12 20 7
10 2 12 -8 2z"/>
<path d="M2596 5291 c-4 -5 -2 -12 3 -15 5 -4 12 -2 15 3 4 5 2 12 -3 15 -5 4
-12 2 -15 -3z"/>
<path d="M2249 5273 c-13 -16 -12 -17 4 -4 9 7 17 15 17 17 0 8 -8 3 -21 -13z"/>
<path d="M2576 5267 c3 -10 9 -15 12 -12 3 3 0 11 -7 18 -10 9 -11 8 -5 -6z"/>
<path d="M2630 5270 c0 -5 6 -9 13 -7 6 1 11 -3 10 -8 -1 -6 8 -11 19 -11 19
0 19 1 -2 18 -25 20 -40 23 -40 8z"/>
<path d="M2370 5266 c0 -2 7 -7 16 -10 8 -3 12 -2 9 4 -6 10 -25 14 -25 6z"/>
<path d="M2220 5242 c0 -7 -4 -11 -9 -8 -4 3 -17 -4 -27 -16 -11 -12 -13 -18
-6 -14 20 12 14 -4 -9 -23 -20 -16 -20 -17 -3 -31 15 -11 16 -11 7 0 -18 20
15 44 37 27 13 -10 13 -10 3 4 -7 9 -10 19 -6 22 3 4 1 7 -6 7 -7 0 -10 4 -6
9 5 10 22 9 60 -4 l20 -7 -20 13 c-11 7 -23 17 -27 23 -5 7 -8 7 -8 -2z"/>
<path d="M2123 5148 c-14 -23 -11 -34 9 -35 19 -2 19 -1 3 11 -13 9 -15 15 -7
20 7 4 12 3 12 -2 0 -6 8 -13 17 -16 15 -6 15 -4 -2 14 -21 24 -22 24 -32 8z"/>
<path d="M2753 5145 c0 -8 4 -12 9 -9 5 3 6 10 3 15 -9 13 -12 11 -12 -6z"/>
<path d="M2116 5084 c-4 -9 -4 -19 -1 -22 3 -3 5 0 5 7 0 7 4 9 10 6 6 -3 7 1
4 9 -8 20 -10 20 -18 0z"/>
<path d="M2769 5083 c-13 -16 -12 -17 4 -4 9 7 17 15 17 17 0 8 -8 3 -21 -13z"/>
<path d="M2095 4961 c-3 -5 -2 -12 3 -15 5 -3 9 1 9 9 0 17 -3 19 -12 6z"/>
<path d="M1976 4761 c9 -9 34 -9 34 -1 0 5 -9 8 -20 7 -10 -1 -17 -3 -14 -6z"/>
<path d="M1995 4719 c-4 -6 -4 -13 -1 -16 3 -4 6 -1 6 6 0 7 5 9 12 5 7 -4 8
-3 4 4 -9 15 -13 15 -21 1z"/>
<path d="M1966 4693 c-6 -14 -5 -15 5 -6 7 7 10 15 7 18 -3 3 -9 -2 -12 -12z"/>
<path d="M1975 4640 c3 -5 8 -10 11 -10 2 0 4 5 4 10 0 6 -5 10 -11 10 -5 0
-7 -4 -4 -10z"/>
<path d="M1966 4485 c-9 -26 -7 -32 5 -12 6 10 9 21 6 23 -2 3 -7 -2 -11 -11z"/>
<path d="M1994 4440 c0 -13 4 -16 10 -10 7 7 7 13 0 20 -6 6 -10 3 -10 -10z"/>
<path d="M2050 4145 c0 -7 30 -13 34 -7 3 4 -4 9 -15 9 -10 1 -19 0 -19 -2z"/>
<path d="M5180 5335 c-10 -13 -11 -18 -1 -28 10 -9 11 -8 5 7 -6 16 -5 17 14
7 16 -8 28 -9 41 -1 21 11 35 -1 36 -29 0 -8 13 -15 30 -17 24 -2 27 -1 12 7
-9 6 -22 7 -29 3 -8 -5 -9 -2 -5 10 4 10 7 20 7 23 0 3 8 -1 18 -8 15 -13 16
-12 3 3 -7 10 -17 15 -22 12 -5 -3 -15 -2 -21 2 -19 12 -48 12 -41 1 4 -6 -1
-8 -11 -4 -10 4 -21 7 -24 7 -4 0 0 5 8 10 8 5 10 10 4 10 -6 0 -17 -7 -24
-15z"/>
<path d="M5236 5301 c-3 -5 2 -15 12 -22 15 -13 16 -12 4 3 -10 13 -10 17 0
21 9 4 9 6 1 6 -6 1 -14 -3 -17 -8z"/>
<path d="M5330 5302 c0 -6 8 -20 18 -32 16 -20 20 -21 25 -7 3 9 1 19 -5 23
-7 4 -8 3 -4 -4 4 -7 2 -12 -3 -12 -6 0 -11 6 -11 14 0 8 -4 18 -10 21 -5 3
-10 2 -10 -3z"/>
<path d="M4890 5273 c-12 -15 -21 -20 -25 -13 -5 8 -12 6 -24 -4 -10 -9 -21
-13 -26 -9 -4 5 -5 3 -1 -4 4 -8 -5 -18 -24 -28 -26 -13 -29 -19 -19 -31 13
-16 23 -19 14 -4 -3 6 -1 10 5 10 6 0 8 5 5 10 -3 6 1 10 10 10 10 0 13 -5 9
-12 -4 -7 -4 -10 1 -6 4 4 15 2 24 -4 12 -10 12 -8 -1 8 -19 22 -24 39 -9 29
5 -3 15 0 23 7 20 19 38 20 38 4 0 -8 4 -18 10 -21 7 -4 7 3 0 20 -14 36 -13
40 7 24 14 -12 16 -12 9 0 -6 9 -4 12 5 9 8 -3 14 -10 14 -15 0 -6 3 -14 7
-18 9 -9 5 16 -5 33 -5 6 -6 16 -3 20 12 20 -27 6 -44 -15z m-30 -17 c0 -2 -8
-10 -17 -17 -16 -13 -17 -12 -4 4 13 16 21 21 21 13z"/>
<path d="M5388 5243 c19 -7 14 -23 -5 -17 -15 5 -16 4 -3 -5 8 -6 19 -6 24 -1
10 10 -1 30 -17 29 -9 0 -9 -2 1 -6z"/>
<path d="M5420 5221 c0 -5 7 -11 15 -15 8 -3 15 -1 15 3 0 5 -7 11 -15 15 -8
3 -15 1 -15 -3z"/>
<path d="M5436 5178 c3 -4 11 -5 19 -1 21 7 19 12 -4 10 -11 0 -18 -5 -15 -9z"/>
<path d="M4648 5113 c-71 -73 -98 -102 -97 -105 2 -11 -15 -37 -22 -33 -4 3
-13 -4 -19 -15 -10 -19 -10 -21 8 -11 11 6 22 8 24 5 3 -2 11 3 19 13 12 14
12 15 0 9 -9 -6 -12 -5 -9 5 3 8 10 13 16 12 7 -2 9 4 5 14 -4 10 -2 14 5 9 6
-3 14 -1 17 5 4 5 13 8 21 5 8 -3 13 -2 13 2 -3 20 2 33 11 27 6 -3 10 -1 10
4 0 17 -14 13 -33 -10 -10 -11 -21 -19 -24 -16 -9 9 36 51 58 54 11 2 18 -1
14 -7 -3 -5 -1 -10 5 -10 7 0 9 8 5 21 -6 16 -4 20 6 13 12 -6 12 -5 1 8 -10
13 -9 16 6 20 10 3 19 13 19 22 0 9 -1 16 -1 16 -1 0 -27 -26 -58 -57z m22 3
c0 -2 -8 -10 -17 -17 -16 -13 -17 -12 -4 4 13 16 21 21 21 13z"/>
<path d="M4695 5091 c-3 -5 -2 -12 3 -15 5 -3 9 1 9 9 0 17 -3 19 -12 6z"/>
<path d="M4593 4992 c-8 -14 -8 -19 1 -19 7 0 13 9 13 19 1 10 1 18 0 18 -1 0
-7 -8 -14 -18z"/>
<path d="M5536 4987 c3 -10 9 -15 12 -12 3 3 0 11 -7 18 -10 9 -11 8 -5 -6z"/>
<path d="M4560 4940 c-9 -6 -10 -10 -3 -10 6 0 15 5 18 10 8 12 4 12 -15 0z"/>
<path d="M4523 4933 c-15 -5 -17 -23 -4 -23 5 0 11 7 15 15 3 8 4 15 3 14 -1
0 -8 -3 -14 -6z"/>
<path d="M4469 4903 c-13 -14 -18 -23 -11 -19 7 4 12 2 12 -5 0 -7 7 -4 16 7
13 16 15 16 10 2 -3 -10 -1 -18 4 -18 13 0 13 27 0 35 -6 4 -8 11 -5 16 11 17
-2 9 -26 -18z"/>
<path d="M4470 4849 c0 -5 5 -7 10 -4 6 3 10 8 10 11 0 2 -4 4 -10 4 -5 0 -10
-5 -10 -11z"/>
<path d="M4450 4810 c-6 -11 -8 -20 -6 -20 3 0 10 9 16 20 6 11 8 20 6 20 -3
0 -10 -9 -16 -20z"/>
<path d="M4405 4800 c-3 -5 -3 -10 2 -10 4 0 1 -5 -7 -10 -13 -8 -13 -10 2
-10 9 0 20 5 23 10 3 6 1 10 -5 10 -6 0 -8 5 -5 10 3 6 4 10 1 10 -3 0 -8 -4
-11 -10z"/>
<path d="M4437 4773 c-10 -9 -9 -23 1 -23 5 0 9 7 9 15 0 17 -1 18 -10 8z"/>
<path d="M4376 4735 c-11 -16 -12 -26 -5 -30 6 -4 13 -4 16 -1 4 3 1 6 -6 6
-7 0 -9 5 -6 10 4 7 12 7 25 0 13 -7 21 -7 25 0 4 6 3 10 -2 9 -18 -3 -33 2
-33 11 0 5 7 7 15 4 8 -4 15 -4 15 -1 0 3 -6 7 -14 10 -8 3 -21 -4 -30 -18z"/>
<path d="M4380 4679 c0 -5 5 -7 10 -4 6 3 10 8 10 11 0 2 -4 4 -10 4 -5 0 -10
-5 -10 -11z"/>
<path d="M4350 4579 c0 -5 5 -7 10 -4 6 3 10 8 10 11 0 2 -4 4 -10 4 -5 0 -10
-5 -10 -11z"/>
<path d="M4304 4559 c-3 -6 4 -21 17 -33 l23 -21 -19 23 c-16 20 -17 25 -5 32
9 6 10 10 3 10 -6 0 -15 -5 -19 -11z"/>
<path d="M4296 4517 c3 -10 9 -15 12 -12 3 3 0 11 -7 18 -10 9 -11 8 -5 -6z"/>
<path d="M4286 4481 c-19 -7 -19 -8 0 -13 13 -3 21 0 21 8 0 8 -1 14 -1 13 -1
0 -10 -4 -20 -8z"/>
<path d="M4261 4423 c-1 -17 16 -25 25 -12 4 7 3 9 -4 5 -5 -3 -13 0 -15 6 -4
9 -6 10 -6 1z"/>
<path d="M4263 4379 c3 -9 -2 -27 -10 -40 -9 -13 -13 -21 -8 -17 4 4 14 3 21
-3 8 -7 14 -7 19 1 4 6 3 9 -2 8 -8 -3 -13 5 -13 23 0 5 6 7 13 3 7 -5 7 -1
-3 12 -22 29 -24 30 -17 13z"/>
<path d="M4245 4300 c-3 -5 -1 -10 4 -10 6 0 11 5 11 10 0 6 -2 10 -4 10 -3 0
-8 -4 -11 -10z"/>
<path d="M4246 4267 c3 -10 9 -15 12 -12 3 3 0 11 -7 18 -10 9 -11 8 -5 -6z"/>
<path d="M4251 4133 c-1 -17 16 -25 25 -12 4 7 3 9 -4 5 -5 -3 -13 0 -15 6 -4
9 -6 10 -6 1z"/>
<path d="M4267 4049 c4 -13 8 -18 11 -10 2 7 -1 18 -6 23 -8 8 -9 4 -5 -13z"/>
<path d="M4287 3979 c7 -7 15 -10 18 -7 3 3 -2 9 -12 12 -14 6 -15 5 -6 -5z"/>
<path d="M4356 3838 c3 -5 10 -6 15 -3 13 9 11 12 -6 12 -8 0 -12 -4 -9 -9z"/>
<path d="M3250 3789 c-24 -18 -67 -18 -55 0 7 12 -34 6 -46 -6 -6 -6 -17 -9
-24 -7 -7 3 -16 1 -19 -5 -4 -6 -13 -8 -20 -5 -8 3 -23 -6 -34 -20 -17 -22
-21 -24 -32 -11 -7 8 -17 12 -24 8 -6 -4 -17 -8 -25 -10 -8 -1 -18 -8 -22 -16
-5 -8 -20 -13 -33 -12 -14 2 -25 0 -25 -3 3 -20 -2 -32 -11 -27 -5 3 -10 2
-10 -3 0 -6 7 -13 16 -16 8 -3 13 -2 10 3 -3 5 1 12 10 15 8 3 12 10 9 16 -3
5 -1 10 4 10 6 0 11 -8 11 -17 1 -15 3 -13 13 5 7 12 16 20 20 16 4 -4 1 -14
-6 -23 -11 -14 -10 -14 5 -2 10 7 16 17 13 21 -6 9 12 23 33 26 6 1 12 -2 12
-6 0 -5 9 -8 19 -7 12 1 17 6 13 16 -3 8 -1 12 5 8 6 -4 23 3 37 14 15 12 29
19 32 16 3 -2 -6 -14 -20 -25 -14 -10 -23 -22 -19 -26 3 -3 13 3 20 14 11 16
18 18 33 10 29 -16 38 -11 10 5 -14 8 -23 15 -20 15 38 9 50 9 45 0 -3 -5 -1
-10 5 -10 7 0 10 7 7 14 -4 10 -1 13 8 9 8 -3 13 -8 10 -12 -2 -4 2 -8 10 -8
8 0 15 5 15 10 0 5 7 7 15 3 8 -3 14 -2 14 2 -3 19 2 26 10 13 7 -10 13 -11
31 -1 12 6 19 14 16 18 -14 13 -42 9 -66 -9z m40 1 c0 -5 -2 -10 -4 -10 -3 0
-8 5 -11 10 -3 6 -1 10 4 10 6 0 11 -4 11 -10z m-200 -34 c0 -2 -7 -7 -16 -10
-8 -3 -12 -2 -9 4 6 10 25 14 25 6z"/>
<path d="M3431 3778 c5 -10 7 -23 4 -28 -3 -5 -2 -11 3 -14 5 -3 8 10 8 28 0
19 -6 33 -13 33 -9 0 -9 -6 -2 -19z"/>
<path d="M3306 3764 c-9 -8 -14 -20 -11 -25 9 -13 15 -11 13 4 -2 6 3 11 10 9
8 -1 11 2 8 7 -4 5 0 12 6 14 9 4 9 6 1 6 -6 1 -19 -6 -27 -15z"/>
<path d="M3493 3768 c-3 -7 -1 -8 5 -4 7 4 12 3 12 -2 0 -6 6 -12 14 -15 9 -4
13 0 12 10 -3 19 -33 26 -43 11z"/>
<path d="M3574 3748 c-4 -7 -4 -10 1 -6 4 4 14 0 22 -10 13 -15 13 -15 3 6
-12 25 -16 27 -26 10z"/>
<path d="M3466 3741 c8 -8 43 -8 38 0 -2 4 -13 7 -24 6 -10 -1 -17 -3 -14 -6z"/>
<path d="M3557 3725 c3 -8 9 -12 14 -9 12 7 11 11 -5 17 -10 4 -13 1 -9 -8z"/>
<path d="M2990 3700 c0 -5 5 -10 10 -10 6 0 10 5 10 10 0 6 -4 10 -10 10 -5 0
-10 -4 -10 -10z"/>
<path d="M3596 3698 c3 -5 10 -6 15 -3 13 9 11 12 -6 12 -8 0 -12 -4 -9 -9z"/>
<path d="M3660 3686 c7 -7 13 -7 20 0 6 6 3 10 -10 10 -13 0 -16 -4 -10 -10z"/>
<path d="M3740 3670 c-8 -5 -12 -12 -9 -15 4 -3 12 1 19 10 14 17 11 19 -10 5z"/>
<path d="M3760 3655 c-11 -13 -10 -14 4 -9 9 3 16 10 16 15 0 13 -6 11 -20 -6z"/>
<path d="M2866 3642 c-3 -5 1 -9 9 -9 8 0 12 4 9 9 -3 4 -7 8 -9 8 -2 0 -6 -4
-9 -8z"/>
<path d="M2830 3630 c-9 -6 -10 -10 -3 -10 6 0 15 5 18 10 8 12 4 12 -15 0z"/>
<path d="M2816 3598 c3 -5 10 -6 15 -3 13 9 11 12 -6 12 -8 0 -12 -4 -9 -9z"/>
<path d="M2770 3586 c0 -2 7 -7 16 -10 8 -3 12 -2 9 4 -6 10 -25 14 -25 6z"/>
<path d="M3810 3586 c0 -2 7 -7 16 -10 8 -3 12 -2 9 4 -6 10 -25 14 -25 6z"/>
<path d="M3884 3566 c11 -9 24 -16 30 -16 12 0 7 5 -24 19 -24 11 -24 11 -6
-3z"/>
<path d="M2706 3558 c3 -5 10 -6 15 -3 13 9 11 12 -6 12 -8 0 -12 -4 -9 -9z"/>
<path d="M2577 3533 c-10 -10 -8 -23 4 -23 5 0 8 4 5 9 -4 5 0 12 6 14 7 3 8
6 2 6 -6 1 -14 -2 -17 -6z"/>
<path d="M2540 3510 c-9 -6 -10 -10 -3 -10 6 0 15 5 18 10 8 12 4 12 -15 0z"/>
<path d="M2473 3445 c0 -8 4 -12 9 -9 5 3 6 10 3 15 -9 13 -12 11 -12 -6z"/>
<path d="M4023 3445 c0 -8 4 -12 8 -9 4 2 10 -2 12 -8 4 -8 6 -9 6 -2 1 6 -5
17 -12 23 -10 8 -14 7 -14 -4z"/>
<path d="M2330 3402 c0 -5 7 -9 15 -9 8 0 12 4 9 9 -3 4 -9 8 -15 8 -5 0 -9
-4 -9 -8z"/>
<path d="M4050 3399 c0 -5 5 -7 10 -4 6 3 10 8 10 11 0 2 -4 4 -10 4 -5 0 -10
-5 -10 -11z"/>
<path d="M2195 3320 c-3 -5 -2 -10 4 -10 5 0 13 5 16 10 3 6 2 10 -4 10 -5 0
-13 -4 -16 -10z"/>
<path d="M2095 3259 c-4 -6 -5 -12 -2 -15 2 -3 7 2 10 11 7 17 1 20 -8 4z"/>
<path d="M1950 3180 c0 -5 5 -10 10 -10 6 0 10 5 10 10 0 6 -4 10 -10 10 -5 0
-10 -4 -10 -10z"/>
<path d="M1801 3109 c12 -7 12 -9 0 -9 -11 0 -11 -3 -1 -15 14 -17 30 -20 30
-4 0 5 -4 7 -10 4 -5 -3 -10 -2 -10 3 0 17 13 21 31 11 14 -7 17 -6 14 3 -3 7
-19 14 -36 14 -22 1 -27 -1 -18 -7z"/>
<path d="M4173 3065 c0 -8 4 -12 9 -9 5 3 6 10 3 15 -9 13 -12 11 -12 -6z"/>
<path d="M1731 3029 c-28 -34 -29 -38 -14 -51 14 -11 16 -11 8 1 -6 11 -4 13
9 8 13 -5 15 -3 7 12 -14 25 -1 35 16 13 13 -15 13 -15 4 5 -16 32 -13 41 6
18 13 -16 15 -17 10 -2 -6 16 4 22 28 17 6 -1 7 2 2 6 -19 19 -48 9 -76 -27z"/>
<path d="M1673 2887 c0 -29 2 -35 9 -23 5 9 14 13 20 10 7 -4 8 -2 4 5 -4 6
-12 8 -18 5 -8 -5 -9 -1 -5 10 4 10 7 20 7 22 0 3 5 2 10 -1 6 -3 10 -2 10 4
0 5 -8 9 -18 8 -15 -1 -19 -9 -19 -40z"/>
<path d="M1670 2798 c0 -4 4 -8 9 -8 6 0 12 4 15 8 3 5 -1 9 -9 9 -8 0 -15 -4
-15 -9z"/>
<path d="M1670 2720 c14 -9 7 -14 -13 -11 -5 1 -6 -3 -2 -9 5 -8 11 -8 21 1
15 12 10 29 -9 29 -7 0 -6 -4 3 -10z"/>
<path d="M5413 3677 c-13 -5 -23 -15 -23 -21 0 -6 5 -5 12 2 19 19 32 14 17
-5 -13 -17 -12 -17 5 -3 22 17 46 22 46 8 0 -5 5 -8 11 -6 17 6 11 23 -8 23
-10 0 -22 3 -28 6 -5 4 -20 2 -32 -4z"/>
<path d="M5205 3661 c-2 -4 3 -15 11 -26 8 -10 14 -13 14 -7 0 7 5 12 11 12 5
0 7 -5 3 -12 -4 -7 -3 -8 5 -4 6 4 9 12 6 17 -11 16 7 10 22 -8 12 -16 12 -15
2 8 -8 19 -18 25 -40 25 -17 0 -32 -2 -34 -5z m45 -6 c0 -7 -30 -13 -34 -7 -3
4 4 9 15 9 10 1 19 0 19 -2z"/>
<path d="M5280 3666 c0 -3 9 -10 20 -16 11 -6 20 -8 20 -6 0 3 -9 10 -20 16
-11 6 -20 8 -20 6z"/>
<path d="M5149 3644 c-7 -8 -6 -14 2 -19 6 -4 16 -1 21 6 7 11 11 11 15 2 2
-7 9 -13 14 -13 5 0 4 8 -2 18 -14 22 -35 24 -50 6z"/>
<path d="M5434 3638 c-4 -7 -4 -10 1 -6 4 4 14 3 22 -4 11 -8 12 -7 7 6 -7 19
-20 21 -30 4z"/>
<path d="M5530 3640 c0 -6 4 -9 9 -6 5 4 12 1 14 -4 3 -6 4 -5 3 2 -3 15 -26
23 -26 8z"/>
<path d="M5577 3633 c-4 -3 -7 -11 -7 -17 0 -6 5 -5 12 2 6 6 9 14 7 17 -3 3
-9 2 -12 -2z"/>
<path d="M5513 3615 c0 -8 4 -12 9 -9 5 3 6 10 3 15 -9 13 -12 11 -12 -6z"/>
<path d="M5599 3613 c-13 -16 -12 -17 4 -4 16 13 21 21 13 21 -2 0 -10 -8 -17
-17z"/>
<path d="M5170 3599 c0 -5 5 -7 10 -4 6 3 10 8 10 11 0 2 -4 4 -10 4 -5 0 -10
-5 -10 -11z"/>
<path d="M5199 3593 c-13 -16 -12 -17 4 -4 16 13 21 21 13 21 -2 0 -10 -8 -17
-17z"/>
<path d="M5628 3588 c-10 -10 -14 -18 -9 -18 6 0 13 5 17 11 4 8 11 4 19 -11
11 -21 12 -21 19 -4 4 10 4 15 0 11 -5 -4 -13 1 -18 11 -11 17 -12 17 -28 0z"/>
<path d="M5034 3562 c3 -5 0 -13 -6 -15 -9 -4 -10 -6 -1 -6 17 -1 25 16 12 25
-7 4 -9 3 -5 -4z"/>
<path d="M5625 3540 c-3 -6 1 -7 9 -4 18 7 21 14 7 14 -6 0 -13 -4 -16 -10z"/>
<path d="M4921 3531 c-9 -6 -9 -11 2 -20 11 -9 17 -8 26 3 9 10 8 15 -2 19 -8
3 -19 2 -26 -2z"/>
<path d="M5036 3518 c3 -5 10 -6 15 -3 13 9 11 12 -6 12 -8 0 -12 -4 -9 -9z"/>
<path d="M4846 3494 c-10 -7 -20 -27 -22 -46 -5 -33 -5 -33 8 -8 8 14 23 25
33 25 13 0 20 7 21 21 1 23 -15 27 -40 8z m33 -17 c0 -8 -2 -8 -6 1 -4 10 -10
9 -27 -5 l-21 -18 19 22 c19 23 37 22 35 0z"/>
<path d="M4794 3445 c-4 -8 -10 -13 -15 -10 -4 3 -18 -8 -30 -24 -12 -17 -25
-28 -30 -26 -6 5 -21 -19 -23 -38 -1 -4 -8 -12 -16 -17 -8 -5 -11 -12 -6 -17
4 -4 12 0 17 9 6 10 16 15 27 12 10 -4 13 -2 7 3 -14 11 -17 33 -6 33 5 0 13
-9 16 -21 4 -11 9 -18 12 -16 2 3 -1 15 -7 28 -10 19 -10 21 3 16 11 -4 14 0
10 16 -4 20 -3 20 7 5 6 -10 16 -18 23 -18 7 0 6 4 -3 10 -12 7 -12 12 -2 22
9 9 12 9 12 0 0 -7 8 -12 18 -11 9 0 12 3 5 5 -6 3 -9 16 -7 30 5 26 -3 33
-12 9z"/>
<path d="M4853 3435 c0 -8 4 -12 9 -9 4 3 8 9 8 15 0 5 -4 9 -8 9 -5 0 -9 -7
-9 -15z"/>
<path d="M4695 3300 c-3 -6 1 -7 9 -4 18 7 21 14 7 14 -6 0 -13 -4 -16 -10z"/>
<path d="M4668 3294 c-4 -3 -14 -7 -25 -9 -10 -2 -20 -4 -22 -4 -2 -1 3 -9 10
-18 12 -15 12 -16 -3 -10 -9 3 -21 0 -27 -7 -7 -8 -5 -12 9 -13 10 -1 24 5 31
13 6 8 8 14 4 14 -4 0 3 9 16 20 13 10 21 19 18 20 -3 0 -8 -3 -11 -6z"/>
<path d="M4660 3240 c-9 -6 -10 -10 -3 -10 6 0 15 5 18 10 8 12 4 12 -15 0z"/>
<path d="M4535 3129 c-3 -4 2 -6 10 -5 21 3 28 13 10 13 -9 0 -18 -4 -20 -8z"/>
<path d="M4520 3100 c-13 -8 -13 -10 2 -10 9 0 20 5 23 10 8 13 -5 13 -25 0z"/>
<path d="M4546 3085 c-11 -8 -15 -15 -9 -15 6 0 16 7 23 15 16 19 11 19 -14 0z"/>
<path d="M4504 3059 c-4 -7 -3 -9 4 -5 5 3 13 0 15 -6 4 -9 6 -10 6 -1 1 17
-16 25 -25 12z"/>
<path d="M4505 3019 c-11 -16 -1 -19 13 -3 7 8 8 14 3 14 -5 0 -13 -5 -16 -11z"/>
<path d="M4510 2980 c0 -5 5 -10 11 -10 5 0 7 5 4 10 -3 6 -8 10 -11 10 -2 0
-4 -4 -4 -10z"/>
<path d="M4475 2960 c-3 -6 1 -7 9 -4 18 7 21 14 7 14 -6 0 -13 -4 -16 -10z"/>
<path d="M4495 2940 c3 -5 8 -10 11 -10 2 0 4 5 4 10 0 6 -5 10 -11 10 -5 0
-7 -4 -4 -10z"/>
<path d="M4474 2920 c0 -13 4 -16 10 -10 7 7 7 13 0 20 -6 6 -10 3 -10 -10z"/>
<path d="M4496 2893 c-6 -14 -5 -15 5 -6 7 7 10 15 7 18 -3 3 -9 -2 -12 -12z"/>
<path d="M4497 2775 c-4 -8 -3 -16 1 -19 4 -3 9 4 9 15 2 23 -3 25 -10 4z"/>
<path d="M5585 680 c-3 -6 1 -7 9 -4 18 7 21 14 7 14 -6 0 -13 -4 -16 -10z"/>
<path d="M7010 5300 c0 -5 5 -10 11 -10 5 0 7 5 4 10 -3 6 -8 10 -11 10 -2 0
-4 -4 -4 -10z"/>
<path d="M7290 4460 c-9 -6 -10 -10 -3 -10 6 0 15 5 18 10 8 12 4 12 -15 0z"/>
<path d="M7300 4320 c0 -5 5 -10 11 -10 5 0 7 5 4 10 -3 6 -8 10 -11 10 -2 0
-4 -4 -4 -10z"/>
<path d="M7325 4280 c-3 -6 1 -7 9 -4 18 7 21 14 7 14 -6 0 -13 -4 -16 -10z"/>
<path d="M7326 4198 c3 -5 10 -6 15 -3 13 9 11 12 -6 12 -8 0 -12 -4 -9 -9z"/>
<path d="M7353 4029 c-2 -23 3 -25 10 -4 4 8 3 16 -1 19 -4 3 -9 -4 -9 -15z"/>
<path d="M7360 3995 c-11 -13 -11 -18 0 -28 10 -9 11 -9 6 1 -4 7 -2 19 4 27
7 8 10 15 7 15 -2 0 -10 -7 -17 -15z"/>
<path d="M7348 3923 c7 -3 16 -2 19 1 4 3 -2 6 -13 5 -11 0 -14 -3 -6 -6z"/>
<path d="M7352 3826 c7 -8 15 -12 17 -11 5 6 -10 25 -20 25 -5 0 -4 -6 3 -14z"/>
<path d="M7350 3780 c-12 -7 -10 -9 7 -7 12 0 19 5 17 9 -6 10 -6 10 -24 -2z"/>
<path d="M7348 3713 c7 -3 16 -2 19 1 4 3 -2 6 -13 5 -11 0 -14 -3 -6 -6z"/>
<path d="M7370 3621 c0 -6 4 -13 10 -16 6 -3 7 1 4 9 -7 18 -14 21 -14 7z"/>
<path d="M7333 3565 c0 -7 8 -10 19 -7 10 2 18 6 18 7 0 1 -8 5 -18 7 -11 3
-19 0 -19 -7z"/>
<path d="M7325 3520 c-3 -5 0 -12 6 -16 8 -5 9 -3 4 6 -5 9 -2 10 14 5 11 -3
21 -3 21 2 0 12 -38 14 -45 3z"/>
<path d="M7336 3382 c-3 -5 1 -9 9 -9 8 0 12 4 9 9 -3 4 -7 8 -9 8 -2 0 -6 -4
-9 -8z"/>
<path d="M7300 3283 c0 -6 8 -17 18 -24 16 -13 16 -13 2 6 -8 11 -16 22 -17
24 -2 2 -3 0 -3 -6z"/>
<path d="M7325 3280 c3 -5 8 -10 11 -10 2 0 4 5 4 10 0 6 -5 10 -11 10 -5 0
-7 -4 -4 -10z"/>
<path d="M7313 3125 c0 -8 4 -12 9 -9 5 3 6 10 3 15 -9 13 -12 11 -12 -6z"/>
<path d="M7296 3073 c-6 -14 -5 -15 5 -6 7 7 10 15 7 18 -3 3 -9 -2 -12 -12z"/>
<path d="M159 3078 c-5 -18 -6 -38 -1 -34 7 8 12 36 6 36 -2 0 -4 -1 -5 -2z"/>
<path d="M7260 3038 c0 -4 7 -8 15 -8 8 0 15 4 15 8 0 5 -7 9 -15 9 -8 0 -15
-4 -15 -9z"/>
<path d="M7253 3003 c0 -9 4 -10 14 -2 7 6 13 12 13 14 0 1 -6 2 -13 2 -8 0
-14 -6 -14 -14z"/>
<path d="M7270 2979 c0 -5 5 -7 10 -4 6 3 10 8 10 11 0 2 -4 4 -10 4 -5 0 -10
-5 -10 -11z"/>
<path d="M7236 2884 c3 -16 1 -23 -6 -19 -5 3 -10 1 -10 -4 0 -12 35 -9 47 4
5 4 2 5 -4 1 -13 -7 -17 4 -14 32 1 6 -3 12 -8 12 -5 0 -8 -12 -5 -26z"/>
<path d="M7210 2820 c-6 -11 -8 -20 -6 -20 3 0 10 9 16 20 6 11 8 20 6 20 -3
0 -10 -9 -16 -20z"/>
<path d="M7233 2815 c-3 -9 -3 -18 -1 -21 3 -3 8 4 11 16 6 23 -1 27 -10 5z"/>
<path d="M7214 2783 c3 -6 -1 -13 -11 -16 -17 -4 -17 -5 0 -6 11 -1 15 -6 11
-13 -4 -6 -3 -8 4 -5 12 8 10 32 -3 44 -4 4 -5 3 -1 -4z"/>
<path d="M7176 2701 c-3 -5 1 -11 9 -14 9 -4 12 -1 8 9 -6 16 -10 17 -17 5z"/>
<path d="M7200 2706 c0 -2 7 -7 16 -10 8 -3 12 -2 9 4 -6 10 -25 14 -25 6z"/>
<path d="M7175 2640 c-3 -6 1 -7 9 -4 18 7 21 14 7 14 -6 0 -13 -4 -16 -10z"/>
<path d="M7157 2619 c7 -7 15 -10 18 -7 3 3 -2 9 -12 12 -14 6 -15 5 -6 -5z"/>
<path d="M7126 2551 c-10 -11 -13 -21 -7 -25 10 -7 24 10 27 32 3 16 0 15 -20
-7z"/>
<path d="M290 2539 c0 -5 5 -7 10 -4 6 3 10 8 10 11 0 2 -4 4 -10 4 -5 0 -10
-5 -10 -11z"/>
<path d="M317 2515 c-4 -8 -3 -16 1 -19 4 -3 9 4 9 15 2 23 -3 25 -10 4z"/>
<path d="M7145 2520 c-3 -6 1 -7 9 -4 18 7 21 14 7 14 -6 0 -13 -4 -16 -10z"/>
<path d="M7110 2506 c0 -2 7 -7 16 -10 8 -3 12 -2 9 4 -6 10 -25 14 -25 6z"/>
<path d="M7150 2496 c0 -2 8 -10 18 -17 15 -13 16 -12 3 4 -13 16 -21 21 -21
13z"/>
<path d="M7103 2482 c-9 -6 -7 -11 6 -19 15 -10 19 -9 17 2 -3 20 -10 25 -23
17z"/>
<path d="M7086 2452 c-3 -6 -1 -14 5 -17 15 -10 25 3 12 16 -7 7 -13 7 -17 1z"/>
<path d="M7101 2356 c-9 -11 -9 -16 1 -22 7 -4 10 -4 6 1 -4 4 -3 14 3 22 6 7
9 13 6 13 -2 0 -10 -6 -16 -14z"/>
<path d="M7025 2310 c-3 -5 -3 -10 1 -10 4 0 0 -8 -8 -17 -8 -10 -14 -25 -13
-33 0 -8 -3 -18 -8 -21 -5 -3 -2 -9 6 -12 10 -4 14 0 13 11 -3 17 32 49 47 44
5 -1 5 2 2 8 -5 8 -13 6 -26 -6 -11 -9 -21 -15 -24 -12 -3 3 4 13 15 23 11 10
20 22 20 27 0 11 -17 10 -25 -2z"/>
<path d="M6979 2193 c-13 -16 -12 -17 4 -4 16 13 21 21 13 21 -2 0 -10 -8 -17
-17z"/>
<path d="M6985 2169 c-11 -16 -1 -19 13 -3 7 8 8 14 3 14 -5 0 -13 -5 -16 -11z"/>
<path d="M6945 2140 c-3 -6 1 -7 9 -4 18 7 21 14 7 14 -6 0 -13 -4 -16 -10z"/>
<path d="M6970 2130 c-9 -6 -10 -10 -3 -10 6 0 15 5 18 10 8 12 4 12 -15 0z"/>
<path d="M6950 2100 c0 -5 5 -10 10 -10 6 0 10 5 10 10 0 6 -4 10 -10 10 -5 0
-10 -4 -10 -10z"/>
<path d="M6902 2065 c4 -4 1 -13 -6 -21 -8 -7 -11 -24 -9 -39 8 -39 19 -38 18
1 -2 38 12 55 26 33 6 -10 9 -10 9 -2 0 7 -10 18 -22 24 -13 6 -20 8 -16 4z"/>
<path d="M6866 1993 c-6 -14 -5 -15 5 -6 7 7 10 15 7 18 -3 3 -9 -2 -12 -12z"/>
<path d="M6915 2001 c-3 -5 -2 -12 3 -15 5 -3 9 1 9 9 0 17 -3 19 -12 6z"/>
<path d="M6873 1950 c-1 -11 2 -20 5 -20 4 0 8 9 9 20 1 11 -2 20 -5 20 -4 0
-8 -9 -9 -20z"/>
<path d="M6826 1921 c-4 -5 3 -7 14 -4 23 6 26 13 6 13 -8 0 -17 -4 -20 -9z"/>
<path d="M6832 1898 c-15 -15 -15 -28 -1 -28 5 0 8 4 5 9 -4 5 0 11 6 14 7 2
10 7 7 10 -3 4 -11 1 -17 -5z"/>
<path d="M6792 1870 c-14 -23 3 -39 21 -21 9 9 7 10 -8 5 -18 -7 -19 -6 -6 9
8 10 12 19 10 22 -3 2 -10 -4 -17 -15z"/>
<path d="M635 1860 c3 -5 8 -10 11 -10 2 0 4 5 4 10 0 6 -5 10 -11 10 -5 0 -7
-4 -4 -10z"/>
<path d="M6790 1823 c0 -5 5 -15 10 -23 7 -12 9 -10 7 8 -1 19 -17 33 -17 15z"/>
<path d="M666 1802 c-3 -5 1 -9 9 -9 8 0 12 4 9 9 -3 4 -7 8 -9 8 -2 0 -6 -4
-9 -8z"/>
<path d="M6741 1796 c-9 -11 -8 -15 5 -20 21 -8 24 -8 24 5 0 5 -5 7 -12 3 -8
-5 -9 -2 -5 9 8 21 3 22 -12 3z"/>
<path d="M6776 1755 c-9 -26 -7 -32 5 -12 6 10 9 21 6 23 -2 3 -7 -2 -11 -11z"/>
<path d="M715 1740 c3 -5 8 -10 11 -10 2 0 4 5 4 10 0 6 -5 10 -11 10 -5 0 -7
-4 -4 -10z"/>
<path d="M760 1660 c-9 -6 -10 -10 -3 -10 6 0 15 5 18 10 8 12 4 12 -15 0z"/>
<path d="M6695 1659 c-4 -6 -5 -12 -2 -15 2 -3 7 2 10 11 7 17 1 20 -8 4z"/>
<path d="M800 1626 c0 -2 7 -7 16 -10 8 -3 12 -2 9 4 -6 10 -25 14 -25 6z"/>
<path d="M6660 1606 c0 -2 7 -7 16 -10 8 -3 12 -2 9 4 -6 10 -25 14 -25 6z"/>
<path d="M816 1583 c-6 -14 -5 -15 5 -6 7 7 10 15 7 18 -3 3 -9 -2 -12 -12z"/>
<path d="M842 1564 c-7 -8 -8 -14 -3 -14 10 0 25 19 20 25 -2 1 -10 -3 -17
-11z"/>
<path d="M6553 1528 c-19 -22 -19 -23 -1 -40 10 -10 18 -14 18 -9 0 6 -4 13
-10 16 -5 3 -10 11 -10 17 0 7 4 7 13 0 10 -9 13 -6 13 13 0 14 -1 25 -1 25
-1 0 -11 -10 -22 -22z"/>
<path d="M6593 1512 c-1 -22 0 -24 9 -8 6 10 6 22 2 26 -5 5 -10 -3 -11 -18z"/>
<path d="M6630 1521 c0 -6 4 -13 10 -16 6 -3 7 1 4 9 -7 18 -14 21 -14 7z"/>
<path d="M900 1506 c0 -2 8 -10 18 -17 15 -13 16 -12 3 4 -13 16 -21 21 -21
13z"/>
<path d="M955 1420 c3 -5 8 -10 11 -10 2 0 4 5 4 10 0 6 -5 10 -11 10 -5 0 -7
-4 -4 -10z"/>
<path d="M6459 1427 c-6 -21 -5 -56 2 -52 5 4 9 13 9 21 0 8 5 12 10 9 6 -3
10 -2 10 3 0 8 -29 26 -31 19z"/>
<path d="M993 1385 c0 -8 4 -15 9 -15 4 0 8 4 8 9 0 6 -4 12 -8 15 -5 3 -9 -1
-9 -9z"/>
<path d="M6476 1373 c-6 -14 -5 -15 5 -6 7 7 10 15 7 18 -3 3 -9 -2 -12 -12z"/>
<path d="M6374 1259 c-3 -6 -2 -15 3 -20 5 -5 9 -1 9 11 0 23 -2 24 -12 9z"/>
<path d="M1174 1182 c3 -6 -2 -15 -11 -21 -10 -6 -13 -11 -7 -11 20 0 37 27
23 36 -7 4 -9 3 -5 -4z"/>
<path d="M1196 1162 c-3 -5 1 -9 9 -9 8 0 12 4 9 9 -3 4 -7 8 -9 8 -2 0 -6 -4
-9 -8z"/>
<path d="M1233 1145 c0 -8 4 -12 9 -9 4 3 8 -2 8 -10 0 -9 5 -16 10 -16 7 0 7
6 0 19 -13 26 -27 34 -27 16z"/>
<path d="M6197 1149 c-15 -9 -16 -13 -6 -26 11 -12 10 -17 -4 -24 -19 -11 -23
-29 -6 -29 5 0 7 5 4 10 -3 6 -1 11 4 11 6 1 15 2 20 3 5 0 13 5 18 10 5 5 3
6 -4 2 -8 -4 -13 -1 -13 9 0 13 4 14 23 5 22 -11 22 -11 2 5 -11 9 -19 21 -17
26 3 11 2 11 -21 -2z"/>
<path d="M6137 1085 c-15 -14 -24 -26 -20 -26 4 -1 19 -3 32 -4 22 -2 23 -1 8
10 -15 11 -15 13 1 28 25 26 11 20 -21 -8z"/>
<path d="M1275 1090 c-3 -5 -1 -10 4 -10 6 0 11 5 11 10 0 6 -2 10 -4 10 -3 0
-8 -4 -11 -10z"/>
<path d="M1307 1067 c-3 -8 1 -14 9 -14 16 0 19 13 5 21 -5 3 -11 0 -14 -7z"/>
<path d="M1340 1051 c0 -10 19 -25 25 -20 1 2 -3 10 -11 17 -8 7 -14 8 -14 3z"/>
<path d="M6059 1023 c-13 -16 -12 -17 4 -4 9 7 17 15 17 17 0 8 -8 3 -21 -13z"/>
<path d="M1367 1006 c-5 -12 -3 -15 5 -10 8 5 9 1 4 -12 -5 -14 -4 -16 4 -7 8
7 9 17 3 28 -9 16 -10 16 -16 1z"/>
<path d="M6133 1005 c0 -8 4 -12 9 -9 5 3 6 10 3 15 -9 13 -12 11 -12 -6z"/>
<path d="M1315 1001 c-3 -5 -2 -12 3 -15 5 -3 9 1 9 9 0 17 -3 19 -12 6z"/>
<path d="M6090 979 c0 -5 5 -7 10 -4 6 3 10 8 10 11 0 2 -4 4 -10 4 -5 0 -10
-5 -10 -11z"/>
<path d="M1416 961 c-4 -5 3 -7 14 -4 23 6 26 13 6 13 -8 0 -17 -4 -20 -9z"/>
<path d="M1510 886 c0 -2 7 -7 16 -10 8 -3 12 -2 9 4 -6 10 -25 14 -25 6z"/>
<path d="M1553 872 c0 -12 5 -22 9 -22 11 0 10 12 -2 30 -7 12 -9 10 -7 -8z"/>
<path d="M1581 844 c0 -11 3 -14 6 -6 3 7 2 16 -1 19 -3 4 -6 -2 -5 -13z"/>
<path d="M5890 819 c0 -5 5 -7 10 -4 6 3 10 8 10 11 0 2 -4 4 -10 4 -5 0 -10
-5 -10 -11z"/>
<path d="M1614 800 c0 -13 4 -16 12 -10 6 6 13 7 16 4 3 -3 9 1 14 8 4 7 4 10
-1 6 -4 -4 -15 -3 -24 2 -13 6 -17 4 -17 -10z"/>
<path d="M1660 780 c0 -5 9 -7 19 -5 21 4 35 -19 25 -38 -5 -9 -4 -9 5 -1 18
16 -1 49 -28 51 -12 1 -21 -2 -21 -7z"/>
<path d="M1791 713 c9 -2 21 -14 27 -26 6 -12 11 -16 11 -9 1 10 6 10 23 -2
12 -9 27 -16 33 -16 5 1 -3 8 -20 17 -16 9 -31 14 -33 12 -2 -2 -8 4 -13 14
-6 9 -18 16 -27 16 -15 -1 -15 -2 -1 -6z"/>
<path d="M1755 700 c3 -5 8 -10 11 -10 2 0 4 5 4 10 0 6 -5 10 -11 10 -5 0 -7
-4 -4 -10z"/>
<path d="M1906 625 c-11 -8 -15 -15 -9 -15 7 0 15 5 18 11 5 6 11 5 18 -5 9
-12 16 -13 27 -5 13 9 13 10 0 6 -8 -2 -19 2 -25 9 -8 11 -14 10 -29 -1z"/>
<path d="M5593 625 c0 -8 4 -12 9 -9 5 3 6 10 3 15 -9 13 -12 11 -12 -6z"/>
<path d="M1979 608 c-7 -23 -5 -39 4 -45 16 -10 41 -13 32 -5 -4 4 -12 7 -18
7 -7 0 -11 10 -11 23 1 18 -3 31 -7 20z"/>
<path d="M5467 595 c-4 -8 -3 -16 1 -19 4 -3 9 4 9 15 2 23 -3 25 -10 4z"/>
<path d="M5348 550 c-19 -15 -19 -16 2 -35 12 -11 21 -15 20 -10 -5 22 1 29
11 15 8 -11 9 -9 3 10 -6 23 -6 24 11 10 11 -9 16 -10 11 -2 -4 6 -2 12 3 12
6 0 11 4 11 8 0 14 -52 9 -72 -8z m22 -10 c-6 -11 -16 -18 -21 -14 -6 3 -3 12
8 20 24 18 26 17 13 -6z"/>
<path d="M2053 535 c0 -8 4 -12 9 -9 5 3 6 10 3 15 -9 13 -12 11 -12 -6z"/>
<path d="M5425 520 c-3 -6 1 -7 9 -4 18 7 21 14 7 14 -6 0 -13 -4 -16 -10z"/>
<path d="M2153 485 c0 -8 4 -12 9 -9 4 3 8 9 8 15 0 5 -4 9 -8 9 -5 0 -9 -7
-9 -15z"/>
<path d="M2263 458 c-11 -19 -13 -39 -2 -32 5 3 7 9 4 14 -3 5 3 13 12 19 10
6 13 11 6 11 -6 0 -15 -6 -20 -12z"/>
<path d="M5130 446 c-7 -9 -17 -13 -23 -9 -6 3 -7 1 -3 -6 4 -6 2 -18 -4 -26
-14 -17 -5 -20 13 -5 7 6 21 17 32 25 15 10 17 17 9 25 -8 8 -14 7 -24 -4z
m20 -5 c0 -5 -7 -12 -16 -15 -14 -5 -15 -4 -4 9 14 17 20 19 20 6z"/>
<path d="M5215 431 c-3 -5 -2 -12 3 -15 5 -3 9 1 9 9 0 17 -3 19 -12 6z"/>
<path d="M2383 414 c14 -17 15 -23 5 -27 -8 -4 -7 -6 5 -6 9 -1 17 4 17 10 0
5 5 7 12 3 7 -5 8 -3 4 5 -5 7 -11 10 -14 7 -3 -3 -15 2 -26 11 -21 18 -21 18
-3 -3z"/>
<path d="M5053 405 c0 -8 4 -15 9 -15 4 0 8 7 8 15 0 8 -4 15 -8 15 -5 0 -9
-7 -9 -15z"/>
<path d="M5146 398 c3 -5 10 -6 15 -3 13 9 11 12 -6 12 -8 0 -12 -4 -9 -9z"/>
<path d="M2350 379 c0 -5 5 -7 10 -4 6 3 10 8 10 11 0 2 -4 4 -10 4 -5 0 -10
-5 -10 -11z"/>
<path d="M2420 376 c0 -2 7 -7 16 -10 8 -3 12 -2 9 4 -6 10 -25 14 -25 6z"/>
<path d="M5073 365 c0 -8 4 -15 9 -15 4 0 8 4 8 9 0 6 -4 12 -8 15 -5 3 -9 -1
-9 -9z"/>
<path d="M2511 354 c0 -11 3 -14 6 -6 3 7 2 16 -1 19 -3 4 -6 -2 -5 -13z"/>
<path d="M4866 352 c-4 -4 -12 -8 -17 -8 -5 -1 -10 -2 -11 -4 -2 -1 -11 -3
-21 -5 -11 -2 -22 -7 -25 -11 -4 -4 1 -4 10 -1 11 4 19 0 23 -14 8 -23 21 -25
29 -3 3 9 11 12 18 8 7 -4 10 -4 6 1 -4 4 -3 14 3 21 11 13 -3 29 -15 16z m-1
-22 c-20 -22 -39 -27 -32 -7 2 6 9 12 15 12 5 0 14 3 18 8 17 16 16 6 -1 -13z"/>
<path d="M2640 286 c7 -7 13 -7 20 0 6 6 3 10 -10 10 -13 0 -16 -4 -10 -10z"/>
<path d="M4683 293 c-15 -5 -17 -23 -4 -23 5 0 11 7 15 15 3 8 4 15 3 14 -1 0
-8 -3 -14 -6z"/>
<path d="M4635 277 c-11 -6 -28 -12 -37 -12 -10 0 -18 -3 -18 -7 0 -5 0 -13 0
-20 0 -6 7 -3 15 8 14 19 14 19 15 -1 1 -19 2 -19 12 3 6 12 15 22 20 22 5 0
4 -9 -2 -19 -13 -25 -13 -41 1 -18 9 15 21 57 16 57 -1 0 -11 -6 -22 -13z"/>
<path d="M2635 260 c-3 -5 -1 -10 4 -10 6 0 11 5 11 10 0 6 -2 10 -4 10 -3 0
-8 -4 -11 -10z"/>
<path d="M2720 266 c0 -2 7 -7 16 -10 8 -3 12 -2 9 4 -6 10 -25 14 -25 6z"/>
<path d="M2864 261 c4 -6 2 -11 -3 -11 -6 0 -11 -5 -11 -11 0 -8 4 -8 15 1 11
10 18 9 30 -4 20 -20 21 -20 21 3 0 11 -4 17 -8 15 -4 -3 -17 0 -29 7 -15 8
-19 8 -15 0z"/>
<path d="M4666 244 c-5 -14 -4 -15 9 -4 17 14 19 20 6 20 -5 0 -12 -7 -15 -16z"/>
<path d="M2796 218 c3 -5 10 -6 15 -3 13 9 11 12 -6 12 -8 0 -12 -4 -9 -9z"/>
<path d="M2924 205 c-10 -8 -14 -15 -8 -15 6 0 17 7 24 15 16 19 9 19 -16 0z"/>
<path d="M3001 204 c0 -11 3 -14 6 -6 3 7 2 16 -1 19 -3 4 -6 -2 -5 -13z"/>
<path d="M4510 210 c-9 -6 -10 -10 -3 -10 6 0 15 5 18 10 8 12 4 12 -15 0z"/>
<path d="M3055 200 c3 -5 8 -10 11 -10 2 0 4 5 4 10 0 6 -5 10 -11 10 -5 0 -7
-4 -4 -10z"/>
<path d="M4262 193 c6 -7 6 -13 1 -13 -5 0 -17 -6 -27 -13 -16 -12 -16 -13 3
-13 11 0 18 3 15 7 -2 4 5 10 16 14 11 3 20 11 20 17 0 7 4 7 13 -1 8 -6 17
-8 20 -4 4 3 7 1 7 -5 0 -7 5 -12 12 -12 8 0 6 6 -5 17 -21 21 -93 27 -75 6z"/>
<path d="M4350 196 c0 -3 9 -10 20 -16 11 -6 20 -8 20 -6 0 3 -9 10 -20 16
-11 6 -20 8 -20 6z"/>
<path d="M3040 180 c8 -5 20 -10 25 -10 6 0 3 5 -5 10 -8 5 -19 10 -25 10 -5
0 -3 -5 5 -10z"/>
<path d="M3096 181 c-3 -5 1 -14 10 -22 12 -10 18 -9 32 6 16 18 16 18 0 6
-18 -13 -42 -6 -33 10 4 5 4 9 1 9 -3 0 -7 -4 -10 -9z"/>
<path d="M3315 181 c3 -6 -3 -14 -12 -20 -10 -6 -13 -11 -6 -11 6 0 15 5 18
10 4 6 12 7 18 3 7 -4 6 0 -2 10 -14 18 -26 23 -16 8z"/>
<path d="M4053 177 c-2 -4 -10 -4 -16 0 -7 4 -6 0 2 -10 7 -9 18 -14 24 -10 6
4 8 0 5 -9 -4 -8 0 -15 7 -15 10 0 11 5 4 19 -6 11 -6 18 0 18 5 0 12 -7 15
-16 4 -9 9 -14 13 -11 3 4 13 1 22 -5 13 -10 14 -10 4 2 -15 16 -17 34 -5 26
5 -3 9 0 9 7 0 14 -75 18 -84 4z m60 -14 c-3 -7 -6 -13 -8 -13 -2 0 -5 6 -8
13 -3 8 1 14 8 14 7 0 11 -6 8 -14z"/>
<path d="M3495 169 c3 -8 15 -21 28 -28 20 -13 21 -13 9 2 -8 9 -9 18 -3 21 9
6 27 -31 23 -47 -1 -5 2 -6 7 -2 6 3 8 11 5 18 -2 7 4 13 16 14 13 1 18 -2 13
-10 -4 -7 0 -6 10 2 14 11 20 11 34 0 11 -10 14 -10 9 -1 -5 8 -1 11 16 8 13
-2 23 -10 22 -18 -1 -8 5 -15 12 -15 9 0 10 5 3 19 -5 10 -6 18 -2 18 4 0 1 6
-5 12 -10 10 -15 10 -22 -2 -8 -12 -10 -12 -10 -1 0 10 -3 11 -13 2 -8 -6 -16
-8 -19 -6 -12 12 -48 13 -48 2 0 -7 -4 -6 -10 3 -8 13 -10 13 -10 1 0 -11 -4
-10 -13 4 -10 13 -16 15 -21 6 -6 -9 -11 -9 -22 0 -12 9 -13 9 -9 -2z"/>
<path d="M3239 153 c-13 -16 -12 -17 4 -4 16 13 21 21 13 21 -2 0 -10 -8 -17
-17z"/>
<path d="M3744 161 c-3 -3 -11 -6 -16 -6 -6 0 -12 -6 -14 -13 -1 -7 0 -8 3 -2
3 7 10 4 19 -7 13 -17 14 -17 7 2 -6 18 -5 19 12 5 11 -9 16 -10 11 -2 -5 8
-1 11 16 8 14 -2 22 -10 22 -20 -1 -9 2 -14 6 -11 4 3 8 16 8 31 0 18 -3 22
-9 13 -7 -11 -9 -11 -9 1 0 13 -1 13 -10 0 -5 -8 -10 -10 -10 -4 0 11 -26 15
-36 5z"/>
<path d="M4290 159 c0 -5 5 -7 10 -4 6 3 10 8 10 11 0 2 -4 4 -10 4 -5 0 -10
-5 -10 -11z"/>
<path d="M3356 147 c3 -10 9 -15 12 -12 3 3 0 11 -7 18 -10 9 -11 8 -5 -6z"/>
<path d="M4192 151 c-11 -7 -11 -9 0 -14 9 -3 15 1 15 9 0 8 -1 14 -1 14 -1 0
-7 -4 -14 -9z"/>
<path d="M3330 140 c0 -5 5 -10 11 -10 5 0 7 5 4 10 -3 6 -8 10 -11 10 -2 0
-4 -4 -4 -10z"/>
<path d="M3455 129 c-4 -6 -5 -12 -2 -15 2 -3 7 2 10 11 7 17 1 20 -8 4z"/>
<path d="M3656 113 c-6 -14 -5 -15 5 -6 7 7 10 15 7 18 -3 3 -9 -2 -12 -12z"/>
<path d="M3953 115 c0 -8 4 -12 9 -9 4 3 8 9 8 15 0 5 -4 9 -8 9 -5 0 -9 -7
-9 -15z"/>
</g>
</svg>
